<?xml version="1.0" encoding="UTF-8" standalone="no"?>
<!DOCTYPE svg PUBLIC "-//W3C//DTD SVG 1.1//EN"
 "http://www.w3.org/Graphics/SVG/1.1/DTD/svg11.dtd">
<!-- Generated by graphviz version 2.26.3 (20100126.1600)
 -->
<!-- Title: Table&lt; T &gt; Pages: 1 -->
<svg width="80pt" height="316pt"
 viewBox="0.00 0.00 80.00 316.00" xmlns="http://www.w3.org/2000/svg" xmlns:xlink="http://www.w3.org/1999/xlink">
<g id="graph1" class="graph" transform="scale(1 1) rotate(0) translate(4 312)">
<title>Table&lt; T &gt;</title>
<polygon fill="white" stroke="white" points="-4,5 -4,-312 77,-312 77,5 -4,5"/>
<!-- Node1 -->
<g id="node1" class="node"><title>Node1</title>
<polygon fill="#bfbfbf" stroke="black" points="-0.5,-0.5 -0.5,-193.5 72.5,-193.5 72.5,-0.5 -0.5,-0.5"/>
<text text-anchor="middle" x="36" y="-180.5" font-family="Helvetica,sans-Serif" font-size="10.00">Table&lt; T &gt;</text>
<polyline fill="none" stroke="black" points="-0.5,-172.5 72.5,-172.5 "/>
<text text-anchor="start" x="7.5" y="-159.5" font-family="Helvetica,sans-Serif" font-size="10.00"># rows_</text>
<text text-anchor="start" x="7.5" y="-146.5" font-family="Helvetica,sans-Serif" font-size="10.00"># cols_</text>
<polyline fill="none" stroke="black" points="-0.5,-138.5 72.5,-138.5 "/>
<text text-anchor="start" x="7.5" y="-125.5" font-family="Helvetica,sans-Serif" font-size="10.00">+ Table()</text>
<text text-anchor="start" x="7.5" y="-112.5" font-family="Helvetica,sans-Serif" font-size="10.00">+ Table()</text>
<text text-anchor="start" x="7.5" y="-99.5" font-family="Helvetica,sans-Serif" font-size="10.00">+ rows()</text>
<text text-anchor="start" x="7.5" y="-86.5" font-family="Helvetica,sans-Serif" font-size="10.00">+ cols()</text>
<text text-anchor="start" x="7.5" y="-73.5" font-family="Helvetica,sans-Serif" font-size="10.00">+ setRows()</text>
<text text-anchor="start" x="7.5" y="-60.5" font-family="Helvetica,sans-Serif" font-size="10.00">+ setCols()</text>
<text text-anchor="start" x="7.5" y="-47.5" font-family="Helvetica,sans-Serif" font-size="10.00">+ setSize()</text>
<text text-anchor="start" x="7.5" y="-34.5" font-family="Helvetica,sans-Serif" font-size="10.00">+ at()</text>
<text text-anchor="start" x="7.5" y="-21.5" font-family="Helvetica,sans-Serif" font-size="10.00">+ operator()()</text>
<text text-anchor="start" x="7.5" y="-8.5" font-family="Helvetica,sans-Serif" font-size="10.00">+ clear()</text>
</g>
<!-- Node2 -->
<g id="node2" class="node"><title>Node2</title>
<polygon fill="white" stroke="#bfbfbf" points="21.5,-244.5 21.5,-307.5 50.5,-307.5 50.5,-244.5 21.5,-244.5"/>
<text text-anchor="middle" x="36" y="-294.5" font-family="Helvetica,sans-Serif" font-size="10.00">T</text>
<polyline fill="none" stroke="#bfbfbf" points="21.5,-286.5 50.5,-286.5 "/>
<text text-anchor="middle" x="36" y="-273.5" font-family="Helvetica,sans-Serif" font-size="10.00"> </text>
<polyline fill="none" stroke="#bfbfbf" points="21.5,-265.5 50.5,-265.5 "/>
<text text-anchor="middle" x="36" y="-252.5" font-family="Helvetica,sans-Serif" font-size="10.00"> </text>
</g>
<!-- Node2&#45;&gt;Node1 -->
<g id="edge2" class="edge"><title>Node2&#45;&gt;Node1</title>
<path fill="none" stroke="#404040" d="M36,-244.41C36,-233.232 36,-219.942 36,-205.987"/>
<polygon fill="none" stroke="#404040" points="36.0001,-205.589 32,-199.589 36,-193.589 40,-199.589 36.0001,-205.589"/>
<text text-anchor="middle" x="50" y="-216.5" font-family="Helvetica,sans-Serif" font-size="10.00"> #data</text>
</g>
</g>
</svg>
