<?xml version="1.0" encoding="UTF-8" standalone="no"?>
<!DOCTYPE svg PUBLIC "-//W3C//DTD SVG 1.1//EN"
 "http://www.w3.org/Graphics/SVG/1.1/DTD/svg11.dtd">
<!-- Generated by graphviz version 2.26.3 (20100126.1600)
 -->
<!-- Title: LevelObject Pages: 1 -->
<svg width="356pt" height="408pt"
 viewBox="0.00 0.00 356.00 408.00" xmlns="http://www.w3.org/2000/svg" xmlns:xlink="http://www.w3.org/1999/xlink">
<g id="graph1" class="graph" transform="scale(1 1) rotate(0) translate(4 404)">
<title>LevelObject</title>
<polygon fill="white" stroke="white" points="-4,5 -4,-404 353,-404 353,5 -4,5"/>
<!-- Node1 -->
<g id="node1" class="node"><title>Node1</title>
<polygon fill="#bfbfbf" stroke="black" points="116.5,-219 116.5,-399 231.5,-399 231.5,-219 116.5,-219"/>
<text text-anchor="middle" x="174" y="-386" font-family="Helvetica,sans-Serif" font-size="10.00">LevelObject</text>
<polyline fill="none" stroke="black" points="116.5,-378 231.5,-378 "/>
<text text-anchor="start" x="124.5" y="-365" font-family="Helvetica,sans-Serif" font-size="10.00"># level_</text>
<text text-anchor="start" x="124.5" y="-352" font-family="Helvetica,sans-Serif" font-size="10.00"># field_</text>
<polyline fill="none" stroke="black" points="116.5,-344 231.5,-344 "/>
<text text-anchor="start" x="124.5" y="-331" font-family="Helvetica,sans-Serif" font-size="10.00">+ type_name()</text>
<text text-anchor="start" x="124.5" y="-318" font-family="Helvetica,sans-Serif" font-size="10.00">+ setLevel()</text>
<text text-anchor="start" x="124.5" y="-305" font-family="Helvetica,sans-Serif" font-size="10.00">+ setField()</text>
<text text-anchor="start" x="124.5" y="-292" font-family="Helvetica,sans-Serif" font-size="10.00">+ ~LevelObject()</text>
<text text-anchor="start" x="124.5" y="-279" font-family="Helvetica,sans-Serif" font-size="10.00">+ printTo()</text>
<text text-anchor="start" x="124.5" y="-266" font-family="Helvetica,sans-Serif" font-size="10.00">+ field()</text>
<text text-anchor="start" x="124.5" y="-253" font-family="Helvetica,sans-Serif" font-size="10.00">+ level()</text>
<text text-anchor="start" x="124.5" y="-240" font-family="Helvetica,sans-Serif" font-size="10.00"># overridedPrintTo()</text>
<text text-anchor="start" x="124.5" y="-227" font-family="Helvetica,sans-Serif" font-size="10.00"># overridedInputFrom()</text>
</g>
<!-- Node2 -->
<g id="node3" class="node"><title>Node2</title>
<a xlink:href="$class_box.html" xlink:title="Класс &quot;Ящик&quot;.">
<polygon fill="white" stroke="black" points="0,-40 0,-142 104,-142 104,-40 0,-40"/>
<text text-anchor="middle" x="52" y="-129" font-family="Helvetica,sans-Serif" font-size="10.00">Box</text>
<polyline fill="none" stroke="black" points="0,-121 104,-121 "/>
<text text-anchor="start" x="8" y="-108" font-family="Helvetica,sans-Serif" font-size="10.00">&#45; creator</text>
<polyline fill="none" stroke="black" points="0,-100 104,-100 "/>
<text text-anchor="start" x="8" y="-87" font-family="Helvetica,sans-Serif" font-size="10.00">+ Box()</text>
<text text-anchor="start" x="8" y="-74" font-family="Helvetica,sans-Serif" font-size="10.00">+ type_name()</text>
<text text-anchor="start" x="8" y="-61" font-family="Helvetica,sans-Serif" font-size="10.00">+ static_typename()</text>
<text text-anchor="start" x="8" y="-48" font-family="Helvetica,sans-Serif" font-size="10.00">+ instance()</text>
</a>
</g>
<!-- Node1&#45;&gt;Node2 -->
<g id="edge2" class="edge"><title>Node1&#45;&gt;Node2</title>
<path fill="none" stroke="midnightblue" d="M118.503,-209.832C105.413,-186.444 91.9837,-162.446 80.6502,-142.195"/>
<polygon fill="none" stroke="midnightblue" points="115.559,-211.74 123.497,-218.757 121.668,-208.322 115.559,-211.74"/>
</g>
<!-- Node3 -->
<g id="node5" class="node"><title>Node3</title>
<a xlink:href="$class_keeper.html" xlink:title="Класс &quot;Кладовщик&quot; (англ. Warehouse keeper, яп. Sokoban).">
<polygon fill="white" stroke="black" points="122,-1 122,-181 226,-181 226,-1 122,-1"/>
<text text-anchor="middle" x="174" y="-168" font-family="Helvetica,sans-Serif" font-size="10.00">Keeper</text>
<polyline fill="none" stroke="black" points="122,-160 226,-160 "/>
<text text-anchor="start" x="130" y="-147" font-family="Helvetica,sans-Serif" font-size="10.00">&#45; creator</text>
<polyline fill="none" stroke="black" points="122,-139 226,-139 "/>
<text text-anchor="start" x="130" y="-126" font-family="Helvetica,sans-Serif" font-size="10.00">+ Keeper()</text>
<text text-anchor="start" x="130" y="-113" font-family="Helvetica,sans-Serif" font-size="10.00">+ ~Keeper()</text>
<text text-anchor="start" x="130" y="-100" font-family="Helvetica,sans-Serif" font-size="10.00">+ type_name()</text>
<text text-anchor="start" x="130" y="-87" font-family="Helvetica,sans-Serif" font-size="10.00">+ moveLeft()</text>
<text text-anchor="start" x="130" y="-74" font-family="Helvetica,sans-Serif" font-size="10.00">+ moveRight()</text>
<text text-anchor="start" x="130" y="-61" font-family="Helvetica,sans-Serif" font-size="10.00">+ moveUp()</text>
<text text-anchor="start" x="130" y="-48" font-family="Helvetica,sans-Serif" font-size="10.00">+ moveDown()</text>
<text text-anchor="start" x="130" y="-35" font-family="Helvetica,sans-Serif" font-size="10.00">+ instance()</text>
<text text-anchor="start" x="130" y="-22" font-family="Helvetica,sans-Serif" font-size="10.00">+ static_typename()</text>
<text text-anchor="start" x="130" y="-9" font-family="Helvetica,sans-Serif" font-size="10.00">&#45; move()</text>
</a>
</g>
<!-- Node1&#45;&gt;Node3 -->
<g id="edge4" class="edge"><title>Node1&#45;&gt;Node3</title>
<path fill="none" stroke="midnightblue" d="M174,-208.511C174,-199.393 174,-190.195 174,-181.175"/>
<polygon fill="none" stroke="midnightblue" points="170.5,-208.757 174,-218.757 177.5,-208.757 170.5,-208.757"/>
</g>
<!-- Node4 -->
<g id="node7" class="node"><title>Node4</title>
<a xlink:href="$class_wall.html" xlink:title="Класс &quot;Стена&quot;.">
<polygon fill="white" stroke="black" points="244,-40 244,-142 348,-142 348,-40 244,-40"/>
<text text-anchor="middle" x="296" y="-129" font-family="Helvetica,sans-Serif" font-size="10.00">Wall</text>
<polyline fill="none" stroke="black" points="244,-121 348,-121 "/>
<text text-anchor="start" x="252" y="-108" font-family="Helvetica,sans-Serif" font-size="10.00">+ creator</text>
<polyline fill="none" stroke="black" points="244,-100 348,-100 "/>
<text text-anchor="start" x="252" y="-87" font-family="Helvetica,sans-Serif" font-size="10.00">+ Wall()</text>
<text text-anchor="start" x="252" y="-74" font-family="Helvetica,sans-Serif" font-size="10.00">+ type_name()</text>
<text text-anchor="start" x="252" y="-61" font-family="Helvetica,sans-Serif" font-size="10.00">+ static_typename()</text>
<text text-anchor="start" x="252" y="-48" font-family="Helvetica,sans-Serif" font-size="10.00">+ instance()</text>
</a>
</g>
<!-- Node1&#45;&gt;Node4 -->
<g id="edge6" class="edge"><title>Node1&#45;&gt;Node4</title>
<path fill="none" stroke="midnightblue" d="M229.497,-209.832C242.587,-186.444 256.016,-162.446 267.35,-142.195"/>
<polygon fill="none" stroke="midnightblue" points="226.332,-208.322 224.503,-218.757 232.441,-211.74 226.332,-208.322"/>
</g>
</g>
</svg>
