<?xml version="1.0" encoding="UTF-8" standalone="no"?>
<!DOCTYPE svg PUBLIC "-//W3C//DTD SVG 1.1//EN"
 "http://www.w3.org/Graphics/SVG/1.1/DTD/svg11.dtd">
<!-- Generated by graphviz version 2.26.3 (20100126.1600)
 -->
<!-- Title: Keeper Pages: 1 -->
<svg width="122pt" height="408pt"
 viewBox="0.00 0.00 122.00 408.00" xmlns="http://www.w3.org/2000/svg" xmlns:xlink="http://www.w3.org/1999/xlink">
<g id="graph1" class="graph" transform="scale(1 1) rotate(0) translate(4 404)">
<title>Keeper</title>
<polygon fill="white" stroke="white" points="-4,5 -4,-404 119,-404 119,5 -4,5"/>
<!-- Node1 -->
<g id="node1" class="node"><title>Node1</title>
<polygon fill="#bfbfbf" stroke="black" points="5,-1 5,-181 109,-181 109,-1 5,-1"/>
<text text-anchor="middle" x="57" y="-168" font-family="Helvetica,sans-Serif" font-size="10.00">Keeper</text>
<polyline fill="none" stroke="black" points="5,-160 109,-160 "/>
<text text-anchor="start" x="13" y="-147" font-family="Helvetica,sans-Serif" font-size="10.00">&#45; creator</text>
<polyline fill="none" stroke="black" points="5,-139 109,-139 "/>
<text text-anchor="start" x="13" y="-126" font-family="Helvetica,sans-Serif" font-size="10.00">+ Keeper()</text>
<text text-anchor="start" x="13" y="-113" font-family="Helvetica,sans-Serif" font-size="10.00">+ ~Keeper()</text>
<text text-anchor="start" x="13" y="-100" font-family="Helvetica,sans-Serif" font-size="10.00">+ type_name()</text>
<text text-anchor="start" x="13" y="-87" font-family="Helvetica,sans-Serif" font-size="10.00">+ moveLeft()</text>
<text text-anchor="start" x="13" y="-74" font-family="Helvetica,sans-Serif" font-size="10.00">+ moveRight()</text>
<text text-anchor="start" x="13" y="-61" font-family="Helvetica,sans-Serif" font-size="10.00">+ moveUp()</text>
<text text-anchor="start" x="13" y="-48" font-family="Helvetica,sans-Serif" font-size="10.00">+ moveDown()</text>
<text text-anchor="start" x="13" y="-35" font-family="Helvetica,sans-Serif" font-size="10.00">+ instance()</text>
<text text-anchor="start" x="13" y="-22" font-family="Helvetica,sans-Serif" font-size="10.00">+ static_typename()</text>
<text text-anchor="start" x="13" y="-9" font-family="Helvetica,sans-Serif" font-size="10.00">&#45; move()</text>
</g>
<!-- Node2 -->
<g id="node2" class="node"><title>Node2</title>
<a xlink:href="$class_level_object.html" xlink:title="Класс &quot;Объект игрового уровня&quot;.">
<polygon fill="white" stroke="black" points="-0.5,-219 -0.5,-399 114.5,-399 114.5,-219 -0.5,-219"/>
<text text-anchor="middle" x="57" y="-386" font-family="Helvetica,sans-Serif" font-size="10.00">LevelObject</text>
<polyline fill="none" stroke="black" points="-0.5,-378 114.5,-378 "/>
<text text-anchor="start" x="7.5" y="-365" font-family="Helvetica,sans-Serif" font-size="10.00"># level_</text>
<text text-anchor="start" x="7.5" y="-352" font-family="Helvetica,sans-Serif" font-size="10.00"># field_</text>
<polyline fill="none" stroke="black" points="-0.5,-344 114.5,-344 "/>
<text text-anchor="start" x="7.5" y="-331" font-family="Helvetica,sans-Serif" font-size="10.00">+ type_name()</text>
<text text-anchor="start" x="7.5" y="-318" font-family="Helvetica,sans-Serif" font-size="10.00">+ setLevel()</text>
<text text-anchor="start" x="7.5" y="-305" font-family="Helvetica,sans-Serif" font-size="10.00">+ setField()</text>
<text text-anchor="start" x="7.5" y="-292" font-family="Helvetica,sans-Serif" font-size="10.00">+ ~LevelObject()</text>
<text text-anchor="start" x="7.5" y="-279" font-family="Helvetica,sans-Serif" font-size="10.00">+ printTo()</text>
<text text-anchor="start" x="7.5" y="-266" font-family="Helvetica,sans-Serif" font-size="10.00">+ field()</text>
<text text-anchor="start" x="7.5" y="-253" font-family="Helvetica,sans-Serif" font-size="10.00">+ level()</text>
<text text-anchor="start" x="7.5" y="-240" font-family="Helvetica,sans-Serif" font-size="10.00"># overridedPrintTo()</text>
<text text-anchor="start" x="7.5" y="-227" font-family="Helvetica,sans-Serif" font-size="10.00"># overridedInputFrom()</text>
</a>
</g>
<!-- Node2&#45;&gt;Node1 -->
<g id="edge2" class="edge"><title>Node2&#45;&gt;Node1</title>
<path fill="none" stroke="midnightblue" d="M57,-208.511C57,-199.393 57,-190.195 57,-181.175"/>
<polygon fill="none" stroke="midnightblue" points="53.5001,-208.757 57,-218.757 60.5001,-208.757 53.5001,-208.757"/>
</g>
</g>
</svg>
