<?xml version="1.0" encoding="UTF-8" standalone="no"?>
<!DOCTYPE svg PUBLIC "-//W3C//DTD SVG 1.1//EN"
 "http://www.w3.org/Graphics/SVG/1.1/DTD/svg11.dtd">
<!-- Generated by graphviz version 2.26.3 (20100126.1600)
 -->
<!-- Title: Table&lt; T &gt; Pages: 1 -->
<svg width="91pt" height="602pt"
 viewBox="0.00 0.00 91.00 602.00" xmlns="http://www.w3.org/2000/svg" xmlns:xlink="http://www.w3.org/1999/xlink">
<g id="graph1" class="graph" transform="scale(1 1) rotate(0) translate(4 598)">
<title>Table&lt; T &gt;</title>
<polygon fill="white" stroke="white" points="-4,5 -4,-598 88,-598 88,5 -4,5"/>
<!-- Node1 -->
<g id="node1" class="node"><title>Node1</title>
<polygon fill="#bfbfbf" stroke="black" points="3.5,-387 3.5,-593 76.5,-593 76.5,-387 3.5,-387"/>
<text text-anchor="middle" x="40" y="-580" font-family="Helvetica,sans-Serif" font-size="10.00">Table&lt; T &gt;</text>
<polyline fill="none" stroke="black" points="3.5,-572 76.5,-572 "/>
<text text-anchor="start" x="11.5" y="-559" font-family="Helvetica,sans-Serif" font-size="10.00"># rows_</text>
<text text-anchor="start" x="11.5" y="-546" font-family="Helvetica,sans-Serif" font-size="10.00"># cols_</text>
<text text-anchor="start" x="11.5" y="-533" font-family="Helvetica,sans-Serif" font-size="10.00"># data</text>
<polyline fill="none" stroke="black" points="3.5,-525 76.5,-525 "/>
<text text-anchor="start" x="11.5" y="-512" font-family="Helvetica,sans-Serif" font-size="10.00">+ Table()</text>
<text text-anchor="start" x="11.5" y="-499" font-family="Helvetica,sans-Serif" font-size="10.00">+ Table()</text>
<text text-anchor="start" x="11.5" y="-486" font-family="Helvetica,sans-Serif" font-size="10.00">+ rows()</text>
<text text-anchor="start" x="11.5" y="-473" font-family="Helvetica,sans-Serif" font-size="10.00">+ cols()</text>
<text text-anchor="start" x="11.5" y="-460" font-family="Helvetica,sans-Serif" font-size="10.00">+ setRows()</text>
<text text-anchor="start" x="11.5" y="-447" font-family="Helvetica,sans-Serif" font-size="10.00">+ setCols()</text>
<text text-anchor="start" x="11.5" y="-434" font-family="Helvetica,sans-Serif" font-size="10.00">+ setSize()</text>
<text text-anchor="start" x="11.5" y="-421" font-family="Helvetica,sans-Serif" font-size="10.00">+ at()</text>
<text text-anchor="start" x="11.5" y="-408" font-family="Helvetica,sans-Serif" font-size="10.00">+ operator()()</text>
<text text-anchor="start" x="11.5" y="-395" font-family="Helvetica,sans-Serif" font-size="10.00">+ clear()</text>
</g>
<!-- Node2 -->
<g id="node3" class="node"><title>Node2</title>
<a xlink:href="$class_table.html" xlink:title="{Table\&lt; Field \&gt;\n|# rows_\l# cols_\l# data\l|+ Table()\l+ Table()\l+ rows()\l+ cols()\l+ setRows()\l+ setCols()\l+ setSize()\l+ at()\l+ operator()()\l+ clear()\l}">
<polygon fill="white" stroke="black" points="0,-129 0,-335 80,-335 80,-129 0,-129"/>
<text text-anchor="middle" x="40" y="-322" font-family="Helvetica,sans-Serif" font-size="10.00">Table&lt; Field &gt;</text>
<polyline fill="none" stroke="black" points="0,-314 80,-314 "/>
<text text-anchor="start" x="8" y="-301" font-family="Helvetica,sans-Serif" font-size="10.00"># rows_</text>
<text text-anchor="start" x="8" y="-288" font-family="Helvetica,sans-Serif" font-size="10.00"># cols_</text>
<text text-anchor="start" x="8" y="-275" font-family="Helvetica,sans-Serif" font-size="10.00"># data</text>
<polyline fill="none" stroke="black" points="0,-267 80,-267 "/>
<text text-anchor="start" x="8" y="-254" font-family="Helvetica,sans-Serif" font-size="10.00">+ Table()</text>
<text text-anchor="start" x="8" y="-241" font-family="Helvetica,sans-Serif" font-size="10.00">+ Table()</text>
<text text-anchor="start" x="8" y="-228" font-family="Helvetica,sans-Serif" font-size="10.00">+ rows()</text>
<text text-anchor="start" x="8" y="-215" font-family="Helvetica,sans-Serif" font-size="10.00">+ cols()</text>
<text text-anchor="start" x="8" y="-202" font-family="Helvetica,sans-Serif" font-size="10.00">+ setRows()</text>
<text text-anchor="start" x="8" y="-189" font-family="Helvetica,sans-Serif" font-size="10.00">+ setCols()</text>
<text text-anchor="start" x="8" y="-176" font-family="Helvetica,sans-Serif" font-size="10.00">+ setSize()</text>
<text text-anchor="start" x="8" y="-163" font-family="Helvetica,sans-Serif" font-size="10.00">+ at()</text>
<text text-anchor="start" x="8" y="-150" font-family="Helvetica,sans-Serif" font-size="10.00">+ operator()()</text>
<text text-anchor="start" x="8" y="-137" font-family="Helvetica,sans-Serif" font-size="10.00">+ clear()</text>
</a>
</g>
<!-- Node1&#45;&gt;Node2 -->
<g id="edge2" class="edge"><title>Node1&#45;&gt;Node2</title>
<path fill="none" stroke="orange" d="M40,-376.906C40,-363.081 40,-349.009 40,-335.338"/>
<polygon fill="orange" stroke="orange" points="36.5001,-376.919 40,-386.919 43.5001,-376.919 36.5001,-376.919"/>
<text text-anchor="middle" x="61.5" y="-358.5" font-family="Helvetica,sans-Serif" font-size="10.00"> &lt; Field &gt;</text>
</g>
<!-- Node3 -->
<g id="node5" class="node"><title>Node3</title>
<a xlink:href="$class_board.html" xlink:title="Класс &quot;Игровая доска&quot;(набор игровых полей).">
<polygon fill="white" stroke="black" points="4.5,-0.5 4.5,-89.5 75.5,-89.5 75.5,-0.5 4.5,-0.5"/>
<text text-anchor="middle" x="40" y="-76.5" font-family="Helvetica,sans-Serif" font-size="10.00">Board</text>
<polyline fill="none" stroke="black" points="4.5,-68.5 75.5,-68.5 "/>
<text text-anchor="middle" x="40" y="-55.5" font-family="Helvetica,sans-Serif" font-size="10.00"> </text>
<polyline fill="none" stroke="black" points="4.5,-47.5 75.5,-47.5 "/>
<text text-anchor="start" x="12.5" y="-34.5" font-family="Helvetica,sans-Serif" font-size="10.00">+ setRows()</text>
<text text-anchor="start" x="12.5" y="-21.5" font-family="Helvetica,sans-Serif" font-size="10.00">+ setCols()</text>
<text text-anchor="start" x="12.5" y="-8.5" font-family="Helvetica,sans-Serif" font-size="10.00">+ setSize()</text>
</a>
</g>
<!-- Node2&#45;&gt;Node3 -->
<g id="edge4" class="edge"><title>Node2&#45;&gt;Node3</title>
<path fill="none" stroke="midnightblue" d="M40,-118.711C40,-108.584 40,-98.7815 40,-89.8088"/>
<polygon fill="none" stroke="midnightblue" points="36.5001,-118.927 40,-128.928 43.5001,-118.928 36.5001,-118.927"/>
</g>
</g>
</svg>
