<?xml version="1.0" encoding="UTF-8" standalone="no"?>
<!DOCTYPE svg PUBLIC "-//W3C//DTD SVG 1.1//EN"
 "http://www.w3.org/Graphics/SVG/1.1/DTD/svg11.dtd">
<!-- Generated by graphviz version 2.26.3 (20100126.1600)
 -->
<!-- Title: Board Pages: 1 -->
<svg width="88pt" height="342pt"
 viewBox="0.00 0.00 88.00 342.00" xmlns="http://www.w3.org/2000/svg" xmlns:xlink="http://www.w3.org/1999/xlink">
<g id="graph1" class="graph" transform="scale(1 1) rotate(0) translate(4 338)">
<title>Board</title>
<polygon fill="white" stroke="white" points="-4,5 -4,-338 85,-338 85,5 -4,5"/>
<!-- Node1 -->
<g id="node1" class="node"><title>Node1</title>
<polygon fill="#bfbfbf" stroke="black" points="4.5,-0.5 4.5,-89.5 75.5,-89.5 75.5,-0.5 4.5,-0.5"/>
<text text-anchor="middle" x="40" y="-76.5" font-family="Helvetica,sans-Serif" font-size="10.00">Board</text>
<polyline fill="none" stroke="black" points="4.5,-68.5 75.5,-68.5 "/>
<text text-anchor="middle" x="40" y="-55.5" font-family="Helvetica,sans-Serif" font-size="10.00"> </text>
<polyline fill="none" stroke="black" points="4.5,-47.5 75.5,-47.5 "/>
<text text-anchor="start" x="12.5" y="-34.5" font-family="Helvetica,sans-Serif" font-size="10.00">+ setRows()</text>
<text text-anchor="start" x="12.5" y="-21.5" font-family="Helvetica,sans-Serif" font-size="10.00">+ setCols()</text>
<text text-anchor="start" x="12.5" y="-8.5" font-family="Helvetica,sans-Serif" font-size="10.00">+ setSize()</text>
</g>
<!-- Node2 -->
<g id="node2" class="node"><title>Node2</title>
<a xlink:href="$class_table.html" xlink:title="{Table\&lt; Field \&gt;\n|# rows_\l# cols_\l# data\l|+ Table()\l+ Table()\l+ rows()\l+ cols()\l+ setRows()\l+ setCols()\l+ setSize()\l+ at()\l+ operator()()\l+ clear()\l}">
<polygon fill="white" stroke="black" points="0,-127 0,-333 80,-333 80,-127 0,-127"/>
<text text-anchor="middle" x="40" y="-320" font-family="Helvetica,sans-Serif" font-size="10.00">Table&lt; Field &gt;</text>
<polyline fill="none" stroke="black" points="0,-312 80,-312 "/>
<text text-anchor="start" x="8" y="-299" font-family="Helvetica,sans-Serif" font-size="10.00"># rows_</text>
<text text-anchor="start" x="8" y="-286" font-family="Helvetica,sans-Serif" font-size="10.00"># cols_</text>
<text text-anchor="start" x="8" y="-273" font-family="Helvetica,sans-Serif" font-size="10.00"># data</text>
<polyline fill="none" stroke="black" points="0,-265 80,-265 "/>
<text text-anchor="start" x="8" y="-252" font-family="Helvetica,sans-Serif" font-size="10.00">+ Table()</text>
<text text-anchor="start" x="8" y="-239" font-family="Helvetica,sans-Serif" font-size="10.00">+ Table()</text>
<text text-anchor="start" x="8" y="-226" font-family="Helvetica,sans-Serif" font-size="10.00">+ rows()</text>
<text text-anchor="start" x="8" y="-213" font-family="Helvetica,sans-Serif" font-size="10.00">+ cols()</text>
<text text-anchor="start" x="8" y="-200" font-family="Helvetica,sans-Serif" font-size="10.00">+ setRows()</text>
<text text-anchor="start" x="8" y="-187" font-family="Helvetica,sans-Serif" font-size="10.00">+ setCols()</text>
<text text-anchor="start" x="8" y="-174" font-family="Helvetica,sans-Serif" font-size="10.00">+ setSize()</text>
<text text-anchor="start" x="8" y="-161" font-family="Helvetica,sans-Serif" font-size="10.00">+ at()</text>
<text text-anchor="start" x="8" y="-148" font-family="Helvetica,sans-Serif" font-size="10.00">+ operator()()</text>
<text text-anchor="start" x="8" y="-135" font-family="Helvetica,sans-Serif" font-size="10.00">+ clear()</text>
</a>
</g>
<!-- Node2&#45;&gt;Node1 -->
<g id="edge2" class="edge"><title>Node2&#45;&gt;Node1</title>
<path fill="none" stroke="midnightblue" d="M40,-116.888C40,-107.321 40,-98.0646 40,-89.5558"/>
<polygon fill="none" stroke="midnightblue" points="36.5001,-116.952 40,-126.952 43.5001,-116.952 36.5001,-116.952"/>
</g>
</g>
</svg>
