<?xml version="1.0" encoding="UTF-8" standalone="no"?>
<!DOCTYPE svg PUBLIC "-//W3C//DTD SVG 1.1//EN"
 "http://www.w3.org/Graphics/SVG/1.1/DTD/svg11.dtd">
<!-- Generated by graphviz version 2.26.3 (20100126.1600)
 -->
<!-- Title: Board Pages: 1 -->
<svg width="161pt" height="1166pt"
 viewBox="0.00 0.00 161.00 1166.00" xmlns="http://www.w3.org/2000/svg" xmlns:xlink="http://www.w3.org/1999/xlink">
<g id="graph1" class="graph" transform="scale(1 1) rotate(0) translate(4 1162)">
<title>Board</title>
<polygon fill="white" stroke="white" points="-4,5 -4,-1162 158,-1162 158,5 -4,5"/>
<!-- Node1 -->
<g id="node1" class="node"><title>Node1</title>
<polygon fill="#bfbfbf" stroke="black" points="75.5,-1068.5 75.5,-1157.5 146.5,-1157.5 146.5,-1068.5 75.5,-1068.5"/>
<text text-anchor="middle" x="111" y="-1144.5" font-family="Helvetica,sans-Serif" font-size="10.00">Board</text>
<polyline fill="none" stroke="black" points="75.5,-1136.5 146.5,-1136.5 "/>
<text text-anchor="middle" x="111" y="-1123.5" font-family="Helvetica,sans-Serif" font-size="10.00"> </text>
<polyline fill="none" stroke="black" points="75.5,-1115.5 146.5,-1115.5 "/>
<text text-anchor="start" x="83.5" y="-1102.5" font-family="Helvetica,sans-Serif" font-size="10.00">+ setRows()</text>
<text text-anchor="start" x="83.5" y="-1089.5" font-family="Helvetica,sans-Serif" font-size="10.00">+ setCols()</text>
<text text-anchor="start" x="83.5" y="-1076.5" font-family="Helvetica,sans-Serif" font-size="10.00">+ setSize()</text>
</g>
<!-- Node5 -->
<g id="node9" class="node"><title>Node5</title>
<a xlink:href="$class_level.html" xlink:title="Класс &quot;Игровой уровень&quot;.">
<polygon fill="white" stroke="black" points="22.5,-811 22.5,-1017 111.5,-1017 111.5,-811 22.5,-811"/>
<text text-anchor="middle" x="67" y="-1004" font-family="Helvetica,sans-Serif" font-size="10.00">Level</text>
<polyline fill="none" stroke="black" points="22.5,-996 111.5,-996 "/>
<text text-anchor="start" x="30.5" y="-983" font-family="Helvetica,sans-Serif" font-size="10.00"># rows</text>
<text text-anchor="start" x="30.5" y="-970" font-family="Helvetica,sans-Serif" font-size="10.00"># cols</text>
<polyline fill="none" stroke="black" points="22.5,-962 111.5,-962 "/>
<text text-anchor="start" x="30.5" y="-949" font-family="Helvetica,sans-Serif" font-size="10.00">+ Level()</text>
<text text-anchor="start" x="30.5" y="-936" font-family="Helvetica,sans-Serif" font-size="10.00">+ ~Level()</text>
<text text-anchor="start" x="30.5" y="-923" font-family="Helvetica,sans-Serif" font-size="10.00">+ detachObject()</text>
<text text-anchor="start" x="30.5" y="-910" font-family="Helvetica,sans-Serif" font-size="10.00">+ detachObject()</text>
<text text-anchor="start" x="30.5" y="-897" font-family="Helvetica,sans-Serif" font-size="10.00">+ attachObject()</text>
<text text-anchor="start" x="30.5" y="-884" font-family="Helvetica,sans-Serif" font-size="10.00">+ addObject()</text>
<text text-anchor="start" x="30.5" y="-871" font-family="Helvetica,sans-Serif" font-size="10.00">+ getObject()</text>
<text text-anchor="start" x="30.5" y="-858" font-family="Helvetica,sans-Serif" font-size="10.00">+ deleteObject()</text>
<text text-anchor="start" x="30.5" y="-845" font-family="Helvetica,sans-Serif" font-size="10.00">+ deleteObject()</text>
<text text-anchor="start" x="30.5" y="-832" font-family="Helvetica,sans-Serif" font-size="10.00">+ clear()</text>
<text text-anchor="start" x="30.5" y="-819" font-family="Helvetica,sans-Serif" font-size="10.00">and 15 more...</text>
</a>
</g>
<!-- Node1&#45;&gt;Node5 -->
<g id="edge12" class="edge"><title>Node1&#45;&gt;Node5</title>
<path fill="none" stroke="#404040" d="M100.217,-1068.29C98.7763,-1062.15 97.3363,-1055.92 96,-1050 94.4682,-1043.21 92.9136,-1036.23 91.3608,-1029.18"/>
<polygon fill="none" stroke="#404040" points="91.3212,-1028.99 86.1301,-1023.99 88.7537,-1017.27 93.9448,-1022.28 91.3212,-1028.99"/>
<text text-anchor="middle" x="112" y="-1040.5" font-family="Helvetica,sans-Serif" font-size="10.00"> #fields</text>
</g>
<!-- Node2 -->
<g id="node2" class="node"><title>Node2</title>
<a xlink:href="$class_table.html" xlink:title="{Table\&lt; Field \&gt;\n|# rows_\l# cols_\l|+ Table()\l+ Table()\l+ rows()\l+ cols()\l+ setRows()\l+ setCols()\l+ setSize()\l+ at()\l+ operator()()\l+ clear()\l}">
<polygon fill="white" stroke="black" points="73,-0.5 73,-193.5 153,-193.5 153,-0.5 73,-0.5"/>
<text text-anchor="middle" x="113" y="-180.5" font-family="Helvetica,sans-Serif" font-size="10.00">Table&lt; Field &gt;</text>
<polyline fill="none" stroke="black" points="73,-172.5 153,-172.5 "/>
<text text-anchor="start" x="81" y="-159.5" font-family="Helvetica,sans-Serif" font-size="10.00"># rows_</text>
<text text-anchor="start" x="81" y="-146.5" font-family="Helvetica,sans-Serif" font-size="10.00"># cols_</text>
<polyline fill="none" stroke="black" points="73,-138.5 153,-138.5 "/>
<text text-anchor="start" x="81" y="-125.5" font-family="Helvetica,sans-Serif" font-size="10.00">+ Table()</text>
<text text-anchor="start" x="81" y="-112.5" font-family="Helvetica,sans-Serif" font-size="10.00">+ Table()</text>
<text text-anchor="start" x="81" y="-99.5" font-family="Helvetica,sans-Serif" font-size="10.00">+ rows()</text>
<text text-anchor="start" x="81" y="-86.5" font-family="Helvetica,sans-Serif" font-size="10.00">+ cols()</text>
<text text-anchor="start" x="81" y="-73.5" font-family="Helvetica,sans-Serif" font-size="10.00">+ setRows()</text>
<text text-anchor="start" x="81" y="-60.5" font-family="Helvetica,sans-Serif" font-size="10.00">+ setCols()</text>
<text text-anchor="start" x="81" y="-47.5" font-family="Helvetica,sans-Serif" font-size="10.00">+ setSize()</text>
<text text-anchor="start" x="81" y="-34.5" font-family="Helvetica,sans-Serif" font-size="10.00">+ at()</text>
<text text-anchor="start" x="81" y="-21.5" font-family="Helvetica,sans-Serif" font-size="10.00">+ operator()()</text>
<text text-anchor="start" x="81" y="-8.5" font-family="Helvetica,sans-Serif" font-size="10.00">+ clear()</text>
</a>
</g>
<!-- Node2&#45;&gt;Node1 -->
<g id="edge2" class="edge"><title>Node2&#45;&gt;Node1</title>
<path fill="none" stroke="midnightblue" d="M128.531,-203.717C135.421,-259.909 142,-330.042 142,-393 142,-914 142,-914 142,-914 142,-974.764 139.062,-990.252 128,-1050 126.886,-1056.02 125.486,-1062.3 123.97,-1068.46"/>
<polygon fill="none" stroke="midnightblue" points="131.999,-203.241 127.288,-193.751 125.052,-204.108 131.999,-203.241"/>
</g>
<!-- Node3 -->
<g id="node4" class="node"><title>Node3</title>
<a xlink:href="$class_field.html" xlink:title="Класс &quot;Игровое поле&quot;(клетка игровой доски).">
<polygon fill="white" stroke="black" points="23.5,-244.5 23.5,-541.5 114.5,-541.5 114.5,-244.5 23.5,-244.5"/>
<text text-anchor="middle" x="69" y="-528.5" font-family="Helvetica,sans-Serif" font-size="10.00">Field</text>
<polyline fill="none" stroke="black" points="23.5,-520.5 114.5,-520.5 "/>
<text text-anchor="start" x="31.5" y="-507.5" font-family="Helvetica,sans-Serif" font-size="10.00"># marked_</text>
<text text-anchor="start" x="31.5" y="-494.5" font-family="Helvetica,sans-Serif" font-size="10.00"># row_</text>
<text text-anchor="start" x="31.5" y="-481.5" font-family="Helvetica,sans-Serif" font-size="10.00"># col_</text>
<polyline fill="none" stroke="black" points="23.5,-473.5 114.5,-473.5 "/>
<text text-anchor="start" x="31.5" y="-460.5" font-family="Helvetica,sans-Serif" font-size="10.00">+ Field()</text>
<text text-anchor="start" x="31.5" y="-447.5" font-family="Helvetica,sans-Serif" font-size="10.00">+ Field()</text>
<text text-anchor="start" x="31.5" y="-434.5" font-family="Helvetica,sans-Serif" font-size="10.00">+ operator=()</text>
<text text-anchor="start" x="31.5" y="-421.5" font-family="Helvetica,sans-Serif" font-size="10.00">+ ~Field()</text>
<text text-anchor="start" x="31.5" y="-408.5" font-family="Helvetica,sans-Serif" font-size="10.00">+ object()</text>
<text text-anchor="start" x="31.5" y="-395.5" font-family="Helvetica,sans-Serif" font-size="10.00">+ marked()</text>
<text text-anchor="start" x="31.5" y="-382.5" font-family="Helvetica,sans-Serif" font-size="10.00">+ row()</text>
<text text-anchor="start" x="31.5" y="-369.5" font-family="Helvetica,sans-Serif" font-size="10.00">+ col()</text>
<text text-anchor="start" x="31.5" y="-356.5" font-family="Helvetica,sans-Serif" font-size="10.00"># setRow()</text>
<text text-anchor="start" x="31.5" y="-343.5" font-family="Helvetica,sans-Serif" font-size="10.00"># setCol()</text>
<text text-anchor="start" x="31.5" y="-330.5" font-family="Helvetica,sans-Serif" font-size="10.00"># setMarked()</text>
<text text-anchor="start" x="31.5" y="-317.5" font-family="Helvetica,sans-Serif" font-size="10.00"># deleteObject()</text>
<text text-anchor="start" x="31.5" y="-304.5" font-family="Helvetica,sans-Serif" font-size="10.00"># detachObject()</text>
<text text-anchor="start" x="31.5" y="-291.5" font-family="Helvetica,sans-Serif" font-size="10.00"># replaceObject()</text>
<text text-anchor="start" x="31.5" y="-278.5" font-family="Helvetica,sans-Serif" font-size="10.00"># replaceObject()</text>
<text text-anchor="start" x="31.5" y="-265.5" font-family="Helvetica,sans-Serif" font-size="10.00"># attachObject()</text>
<text text-anchor="start" x="31.5" y="-252.5" font-family="Helvetica,sans-Serif" font-size="10.00"># addObject()</text>
</a>
</g>
<!-- Node3&#45;&gt;Node2 -->
<g id="edge4" class="edge"><title>Node3&#45;&gt;Node2</title>
<path fill="none" stroke="#404040" d="M91.1289,-244.133C93.0588,-231.15 94.9873,-218.176 96.8551,-205.611"/>
<polygon fill="none" stroke="#404040" points="96.8609,-205.572 93.7866,-199.049 98.6253,-193.702 101.7,-200.225 96.8609,-205.572"/>
<text text-anchor="middle" x="108" y="-216.5" font-family="Helvetica,sans-Serif" font-size="10.00"> #data</text>
</g>
<!-- Node4 -->
<g id="node6" class="node"><title>Node4</title>
<a xlink:href="$class_level_object.html" xlink:title="Класс &quot;Объект игрового уровня&quot;.">
<polygon fill="white" stroke="black" points="-0.5,-592.5 -0.5,-759.5 114.5,-759.5 114.5,-592.5 -0.5,-592.5"/>
<text text-anchor="middle" x="57" y="-746.5" font-family="Helvetica,sans-Serif" font-size="10.00">LevelObject</text>
<polyline fill="none" stroke="black" points="-0.5,-738.5 114.5,-738.5 "/>
<text text-anchor="middle" x="57" y="-725.5" font-family="Helvetica,sans-Serif" font-size="10.00"> </text>
<polyline fill="none" stroke="black" points="-0.5,-717.5 114.5,-717.5 "/>
<text text-anchor="start" x="7.5" y="-704.5" font-family="Helvetica,sans-Serif" font-size="10.00">+ type_name()</text>
<text text-anchor="start" x="7.5" y="-691.5" font-family="Helvetica,sans-Serif" font-size="10.00">+ setLevel()</text>
<text text-anchor="start" x="7.5" y="-678.5" font-family="Helvetica,sans-Serif" font-size="10.00">+ setField()</text>
<text text-anchor="start" x="7.5" y="-665.5" font-family="Helvetica,sans-Serif" font-size="10.00">+ ~LevelObject()</text>
<text text-anchor="start" x="7.5" y="-652.5" font-family="Helvetica,sans-Serif" font-size="10.00">+ printTo()</text>
<text text-anchor="start" x="7.5" y="-639.5" font-family="Helvetica,sans-Serif" font-size="10.00">+ field()</text>
<text text-anchor="start" x="7.5" y="-626.5" font-family="Helvetica,sans-Serif" font-size="10.00">+ level()</text>
<text text-anchor="start" x="7.5" y="-613.5" font-family="Helvetica,sans-Serif" font-size="10.00"># overridedPrintTo()</text>
<text text-anchor="start" x="7.5" y="-600.5" font-family="Helvetica,sans-Serif" font-size="10.00"># overridedInputFrom()</text>
</a>
</g>
<!-- Node3&#45;&gt;Node4 -->
<g id="edge8" class="edge"><title>Node3&#45;&gt;Node4</title>
<path fill="none" stroke="#404040" d="M62.7015,-541.54C62.1483,-554.585 61.5986,-567.551 61.0711,-579.991"/>
<polygon fill="none" stroke="#404040" points="61.0602,-580.25 64.8023,-586.414 60.5517,-592.239 56.8095,-586.075 61.0602,-580.25"/>
<text text-anchor="middle" x="78" y="-564.5" font-family="Helvetica,sans-Serif" font-size="10.00"> #field_</text>
</g>
<!-- Node4&#45;&gt;Node3 -->
<g id="edge6" class="edge"><title>Node4&#45;&gt;Node3</title>
<path fill="none" stroke="#404040" d="M40.1484,-592.4C39.2899,-586.192 38.5549,-580.009 38,-574 37.3954,-567.452 37.0894,-560.785 37.0379,-554.059"/>
<polygon fill="none" stroke="#404040" points="37.04,-553.903 33.1256,-547.847 37.2103,-541.904 41.1248,-547.96 37.04,-553.903"/>
<text text-anchor="middle" x="49" y="-564.5" font-family="Helvetica,sans-Serif" font-size="10.00"> #obj</text>
</g>
<!-- Node5&#45;&gt;Node4 -->
<g id="edge10" class="edge"><title>Node5&#45;&gt;Node4</title>
<path fill="none" stroke="#404040" d="M62.672,-810.994C62.128,-798.046 61.5732,-784.841 61.0339,-772.007"/>
<polygon fill="none" stroke="#404040" points="61.0264,-771.826 56.778,-765.999 60.5225,-759.837 64.7709,-765.663 61.0264,-771.826"/>
<text text-anchor="middle" x="79" y="-782.5" font-family="Helvetica,sans-Serif" font-size="10.00"> #level_</text>
</g>
</g>
</svg>
