<?xml version="1.0" encoding="UTF-8" standalone="no"?>
<!DOCTYPE svg PUBLIC "-//W3C//DTD SVG 1.1//EN"
 "http://www.w3.org/Graphics/SVG/1.1/DTD/svg11.dtd">
<!-- Generated by graphviz version 2.26.3 (20100126.1600)
 -->
<!-- Title: SokobanLevel Pages: 1 -->
<svg width="292pt" height="1168pt"
 viewBox="0.00 0.00 292.00 1168.00" xmlns="http://www.w3.org/2000/svg" xmlns:xlink="http://www.w3.org/1999/xlink">
<g id="graph1" class="graph" transform="scale(1 1) rotate(0) translate(4 1164)">
<title>SokobanLevel</title>
<polygon fill="white" stroke="white" points="-4,5 -4,-1164 289,-1164 289,5 -4,5"/>
<!-- Node1 -->
<g id="node1" class="node"><title>Node1</title>
<polygon fill="#bfbfbf" stroke="black" points="-0.5,-721 -0.5,-901 92.5,-901 92.5,-721 -0.5,-721"/>
<text text-anchor="middle" x="46" y="-888" font-family="Helvetica,sans-Serif" font-size="10.00">SokobanLevel</text>
<polyline fill="none" stroke="black" points="-0.5,-880 92.5,-880 "/>
<text text-anchor="start" x="7.5" y="-867" font-family="Helvetica,sans-Serif" font-size="10.00">&#45; box_count</text>
<text text-anchor="start" x="7.5" y="-854" font-family="Helvetica,sans-Serif" font-size="10.00">&#45; mark_count</text>
<text text-anchor="start" x="7.5" y="-841" font-family="Helvetica,sans-Serif" font-size="10.00">&#45; keeper_count</text>
<polyline fill="none" stroke="black" points="-0.5,-833 92.5,-833 "/>
<text text-anchor="start" x="7.5" y="-820" font-family="Helvetica,sans-Serif" font-size="10.00">+ SokobanLevel()</text>
<text text-anchor="start" x="7.5" y="-807" font-family="Helvetica,sans-Serif" font-size="10.00">+ attachObject()</text>
<text text-anchor="start" x="7.5" y="-794" font-family="Helvetica,sans-Serif" font-size="10.00">+ detachObject()</text>
<text text-anchor="start" x="7.5" y="-781" font-family="Helvetica,sans-Serif" font-size="10.00">+ replaceObject()</text>
<text text-anchor="start" x="7.5" y="-768" font-family="Helvetica,sans-Serif" font-size="10.00">+ setMarked()</text>
<text text-anchor="start" x="7.5" y="-755" font-family="Helvetica,sans-Serif" font-size="10.00">+ load()</text>
<text text-anchor="start" x="7.5" y="-742" font-family="Helvetica,sans-Serif" font-size="10.00">+ validate()</text>
<text text-anchor="start" x="7.5" y="-729" font-family="Helvetica,sans-Serif" font-size="10.00">+ clear()</text>
</g>
<!-- Node2 -->
<g id="node2" class="node"><title>Node2</title>
<a xlink:href="$class_level.html" xlink:title="Класс &quot;Игровой уровень&quot;.">
<polygon fill="white" stroke="black" points="122.5,-953 122.5,-1159 211.5,-1159 211.5,-953 122.5,-953"/>
<text text-anchor="middle" x="167" y="-1146" font-family="Helvetica,sans-Serif" font-size="10.00">Level</text>
<polyline fill="none" stroke="black" points="122.5,-1138 211.5,-1138 "/>
<text text-anchor="start" x="130.5" y="-1125" font-family="Helvetica,sans-Serif" font-size="10.00"># rows</text>
<text text-anchor="start" x="130.5" y="-1112" font-family="Helvetica,sans-Serif" font-size="10.00"># cols</text>
<polyline fill="none" stroke="black" points="122.5,-1104 211.5,-1104 "/>
<text text-anchor="start" x="130.5" y="-1091" font-family="Helvetica,sans-Serif" font-size="10.00">+ Level()</text>
<text text-anchor="start" x="130.5" y="-1078" font-family="Helvetica,sans-Serif" font-size="10.00">+ ~Level()</text>
<text text-anchor="start" x="130.5" y="-1065" font-family="Helvetica,sans-Serif" font-size="10.00">+ detachObject()</text>
<text text-anchor="start" x="130.5" y="-1052" font-family="Helvetica,sans-Serif" font-size="10.00">+ detachObject()</text>
<text text-anchor="start" x="130.5" y="-1039" font-family="Helvetica,sans-Serif" font-size="10.00">+ attachObject()</text>
<text text-anchor="start" x="130.5" y="-1026" font-family="Helvetica,sans-Serif" font-size="10.00">+ addObject()</text>
<text text-anchor="start" x="130.5" y="-1013" font-family="Helvetica,sans-Serif" font-size="10.00">+ getObject()</text>
<text text-anchor="start" x="130.5" y="-1000" font-family="Helvetica,sans-Serif" font-size="10.00">+ deleteObject()</text>
<text text-anchor="start" x="130.5" y="-987" font-family="Helvetica,sans-Serif" font-size="10.00">+ deleteObject()</text>
<text text-anchor="start" x="130.5" y="-974" font-family="Helvetica,sans-Serif" font-size="10.00">+ clear()</text>
<text text-anchor="start" x="130.5" y="-961" font-family="Helvetica,sans-Serif" font-size="10.00">and 15 more...</text>
</a>
</g>
<!-- Node2&#45;&gt;Node1 -->
<g id="edge2" class="edge"><title>Node2&#45;&gt;Node1</title>
<path fill="none" stroke="midnightblue" d="M117.922,-956.627C108.902,-938.363 99.5298,-919.387 90.6484,-901.404"/>
<polygon fill="none" stroke="midnightblue" points="114.893,-958.399 122.46,-965.815 121.169,-955.299 114.893,-958.399"/>
</g>
<!-- Node6 -->
<g id="node10" class="node"><title>Node6</title>
<a xlink:href="$class_level_object.html" xlink:title="Класс &quot;Объект игрового уровня&quot;.">
<polygon fill="white" stroke="black" points="109.5,-727.5 109.5,-894.5 224.5,-894.5 224.5,-727.5 109.5,-727.5"/>
<text text-anchor="middle" x="167" y="-881.5" font-family="Helvetica,sans-Serif" font-size="10.00">LevelObject</text>
<polyline fill="none" stroke="black" points="109.5,-873.5 224.5,-873.5 "/>
<text text-anchor="middle" x="167" y="-860.5" font-family="Helvetica,sans-Serif" font-size="10.00"> </text>
<polyline fill="none" stroke="black" points="109.5,-852.5 224.5,-852.5 "/>
<text text-anchor="start" x="117.5" y="-839.5" font-family="Helvetica,sans-Serif" font-size="10.00">+ type_name()</text>
<text text-anchor="start" x="117.5" y="-826.5" font-family="Helvetica,sans-Serif" font-size="10.00">+ setLevel()</text>
<text text-anchor="start" x="117.5" y="-813.5" font-family="Helvetica,sans-Serif" font-size="10.00">+ setField()</text>
<text text-anchor="start" x="117.5" y="-800.5" font-family="Helvetica,sans-Serif" font-size="10.00">+ ~LevelObject()</text>
<text text-anchor="start" x="117.5" y="-787.5" font-family="Helvetica,sans-Serif" font-size="10.00">+ printTo()</text>
<text text-anchor="start" x="117.5" y="-774.5" font-family="Helvetica,sans-Serif" font-size="10.00">+ field()</text>
<text text-anchor="start" x="117.5" y="-761.5" font-family="Helvetica,sans-Serif" font-size="10.00">+ level()</text>
<text text-anchor="start" x="117.5" y="-748.5" font-family="Helvetica,sans-Serif" font-size="10.00"># overridedPrintTo()</text>
<text text-anchor="start" x="117.5" y="-735.5" font-family="Helvetica,sans-Serif" font-size="10.00"># overridedInputFrom()</text>
</a>
</g>
<!-- Node2&#45;&gt;Node6 -->
<g id="edge14" class="edge"><title>Node2&#45;&gt;Node6</title>
<path fill="none" stroke="#404040" d="M167,-952.808C167,-937.687 167,-922.164 167,-907.191"/>
<polygon fill="none" stroke="#404040" points="167,-906.764 163,-900.764 167,-894.764 171,-900.764 167,-906.764"/>
<text text-anchor="middle" x="184" y="-924.5" font-family="Helvetica,sans-Serif" font-size="10.00"> #level_</text>
</g>
<!-- Node3 -->
<g id="node4" class="node"><title>Node3</title>
<a xlink:href="$class_board.html" xlink:title="Класс &quot;Игровая доска&quot;(набор игровых полей).">
<polygon fill="white" stroke="black" points="192.5,-0.5 192.5,-89.5 263.5,-89.5 263.5,-0.5 192.5,-0.5"/>
<text text-anchor="middle" x="228" y="-76.5" font-family="Helvetica,sans-Serif" font-size="10.00">Board</text>
<polyline fill="none" stroke="black" points="192.5,-68.5 263.5,-68.5 "/>
<text text-anchor="middle" x="228" y="-55.5" font-family="Helvetica,sans-Serif" font-size="10.00"> </text>
<polyline fill="none" stroke="black" points="192.5,-47.5 263.5,-47.5 "/>
<text text-anchor="start" x="200.5" y="-34.5" font-family="Helvetica,sans-Serif" font-size="10.00">+ setRows()</text>
<text text-anchor="start" x="200.5" y="-21.5" font-family="Helvetica,sans-Serif" font-size="10.00">+ setCols()</text>
<text text-anchor="start" x="200.5" y="-8.5" font-family="Helvetica,sans-Serif" font-size="10.00">+ setSize()</text>
</a>
</g>
<!-- Node3&#45;&gt;Node2 -->
<g id="edge4" class="edge"><title>Node3&#45;&gt;Node2</title>
<path fill="none" stroke="#404040" d="M237.279,-89.5334C244.033,-125.827 252,-178.498 252,-225 252,-811 252,-811 252,-811 252,-862.362 235.12,-916.601 216.404,-960.953"/>
<polygon fill="none" stroke="#404040" points="216.386,-960.997 217.671,-968.092 211.616,-972.008 210.33,-964.912 216.386,-960.997"/>
<text text-anchor="middle" x="268" y="-518.5" font-family="Helvetica,sans-Serif" font-size="10.00"> #fields</text>
</g>
<!-- Node4 -->
<g id="node6" class="node"><title>Node4</title>
<a xlink:href="$class_table.html" xlink:title="{Table\&lt; Field \&gt;\n|# rows_\l# cols_\l|+ Table()\l+ Table()\l+ rows()\l+ cols()\l+ setRows()\l+ setCols()\l+ setSize()\l+ at()\l+ operator()()\l+ clear()\l}">
<polygon fill="white" stroke="black" points="141,-128.5 141,-321.5 221,-321.5 221,-128.5 141,-128.5"/>
<text text-anchor="middle" x="181" y="-308.5" font-family="Helvetica,sans-Serif" font-size="10.00">Table&lt; Field &gt;</text>
<polyline fill="none" stroke="black" points="141,-300.5 221,-300.5 "/>
<text text-anchor="start" x="149" y="-287.5" font-family="Helvetica,sans-Serif" font-size="10.00"># rows_</text>
<text text-anchor="start" x="149" y="-274.5" font-family="Helvetica,sans-Serif" font-size="10.00"># cols_</text>
<polyline fill="none" stroke="black" points="141,-266.5 221,-266.5 "/>
<text text-anchor="start" x="149" y="-253.5" font-family="Helvetica,sans-Serif" font-size="10.00">+ Table()</text>
<text text-anchor="start" x="149" y="-240.5" font-family="Helvetica,sans-Serif" font-size="10.00">+ Table()</text>
<text text-anchor="start" x="149" y="-227.5" font-family="Helvetica,sans-Serif" font-size="10.00">+ rows()</text>
<text text-anchor="start" x="149" y="-214.5" font-family="Helvetica,sans-Serif" font-size="10.00">+ cols()</text>
<text text-anchor="start" x="149" y="-201.5" font-family="Helvetica,sans-Serif" font-size="10.00">+ setRows()</text>
<text text-anchor="start" x="149" y="-188.5" font-family="Helvetica,sans-Serif" font-size="10.00">+ setCols()</text>
<text text-anchor="start" x="149" y="-175.5" font-family="Helvetica,sans-Serif" font-size="10.00">+ setSize()</text>
<text text-anchor="start" x="149" y="-162.5" font-family="Helvetica,sans-Serif" font-size="10.00">+ at()</text>
<text text-anchor="start" x="149" y="-149.5" font-family="Helvetica,sans-Serif" font-size="10.00">+ operator()()</text>
<text text-anchor="start" x="149" y="-136.5" font-family="Helvetica,sans-Serif" font-size="10.00">+ clear()</text>
</a>
</g>
<!-- Node4&#45;&gt;Node3 -->
<g id="edge6" class="edge"><title>Node4&#45;&gt;Node3</title>
<path fill="none" stroke="midnightblue" d="M208.769,-118.649C211.409,-108.538 213.975,-98.7123 216.327,-89.7049"/>
<polygon fill="none" stroke="midnightblue" points="205.36,-117.854 206.22,-128.413 212.133,-119.622 205.36,-117.854"/>
</g>
<!-- Node5 -->
<g id="node8" class="node"><title>Node5</title>
<a xlink:href="$class_field.html" xlink:title="Класс &quot;Игровое поле&quot;(клетка игровой доски).">
<polygon fill="white" stroke="black" points="125.5,-372.5 125.5,-669.5 216.5,-669.5 216.5,-372.5 125.5,-372.5"/>
<text text-anchor="middle" x="171" y="-656.5" font-family="Helvetica,sans-Serif" font-size="10.00">Field</text>
<polyline fill="none" stroke="black" points="125.5,-648.5 216.5,-648.5 "/>
<text text-anchor="start" x="133.5" y="-635.5" font-family="Helvetica,sans-Serif" font-size="10.00"># marked_</text>
<text text-anchor="start" x="133.5" y="-622.5" font-family="Helvetica,sans-Serif" font-size="10.00"># row_</text>
<text text-anchor="start" x="133.5" y="-609.5" font-family="Helvetica,sans-Serif" font-size="10.00"># col_</text>
<polyline fill="none" stroke="black" points="125.5,-601.5 216.5,-601.5 "/>
<text text-anchor="start" x="133.5" y="-588.5" font-family="Helvetica,sans-Serif" font-size="10.00">+ Field()</text>
<text text-anchor="start" x="133.5" y="-575.5" font-family="Helvetica,sans-Serif" font-size="10.00">+ Field()</text>
<text text-anchor="start" x="133.5" y="-562.5" font-family="Helvetica,sans-Serif" font-size="10.00">+ operator=()</text>
<text text-anchor="start" x="133.5" y="-549.5" font-family="Helvetica,sans-Serif" font-size="10.00">+ ~Field()</text>
<text text-anchor="start" x="133.5" y="-536.5" font-family="Helvetica,sans-Serif" font-size="10.00">+ object()</text>
<text text-anchor="start" x="133.5" y="-523.5" font-family="Helvetica,sans-Serif" font-size="10.00">+ marked()</text>
<text text-anchor="start" x="133.5" y="-510.5" font-family="Helvetica,sans-Serif" font-size="10.00">+ row()</text>
<text text-anchor="start" x="133.5" y="-497.5" font-family="Helvetica,sans-Serif" font-size="10.00">+ col()</text>
<text text-anchor="start" x="133.5" y="-484.5" font-family="Helvetica,sans-Serif" font-size="10.00"># setRow()</text>
<text text-anchor="start" x="133.5" y="-471.5" font-family="Helvetica,sans-Serif" font-size="10.00"># setCol()</text>
<text text-anchor="start" x="133.5" y="-458.5" font-family="Helvetica,sans-Serif" font-size="10.00"># setMarked()</text>
<text text-anchor="start" x="133.5" y="-445.5" font-family="Helvetica,sans-Serif" font-size="10.00"># deleteObject()</text>
<text text-anchor="start" x="133.5" y="-432.5" font-family="Helvetica,sans-Serif" font-size="10.00"># detachObject()</text>
<text text-anchor="start" x="133.5" y="-419.5" font-family="Helvetica,sans-Serif" font-size="10.00"># replaceObject()</text>
<text text-anchor="start" x="133.5" y="-406.5" font-family="Helvetica,sans-Serif" font-size="10.00"># replaceObject()</text>
<text text-anchor="start" x="133.5" y="-393.5" font-family="Helvetica,sans-Serif" font-size="10.00"># attachObject()</text>
<text text-anchor="start" x="133.5" y="-380.5" font-family="Helvetica,sans-Serif" font-size="10.00"># addObject()</text>
</a>
</g>
<!-- Node5&#45;&gt;Node4 -->
<g id="edge8" class="edge"><title>Node5&#45;&gt;Node4</title>
<path fill="none" stroke="#404040" d="M176.029,-372.133C176.463,-359.284 176.897,-346.444 177.318,-334"/>
<polygon fill="none" stroke="#404040" points="177.328,-333.695 173.533,-327.564 177.733,-321.702 181.528,-327.834 177.328,-333.695"/>
<text text-anchor="middle" x="190" y="-344.5" font-family="Helvetica,sans-Serif" font-size="10.00"> #data</text>
</g>
<!-- Node5&#45;&gt;Node6 -->
<g id="edge12" class="edge"><title>Node5&#45;&gt;Node6</title>
<path fill="none" stroke="#404040" d="M168.949,-669.73C168.736,-685.127 168.525,-700.467 168.323,-715.057"/>
<polygon fill="none" stroke="#404040" points="168.323,-715.121 172.239,-721.176 168.157,-727.12 164.24,-721.065 168.323,-715.121"/>
<text text-anchor="middle" x="184" y="-692.5" font-family="Helvetica,sans-Serif" font-size="10.00"> #field_</text>
</g>
<!-- Node6&#45;&gt;Node5 -->
<g id="edge10" class="edge"><title>Node6&#45;&gt;Node5</title>
<path fill="none" stroke="#404040" d="M147.521,-727.371C146.085,-718.839 144.863,-710.271 144,-702 143.301,-695.301 142.903,-688.47 142.761,-681.576"/>
<polygon fill="none" stroke="#404040" points="142.76,-681.523 138.762,-675.522 142.763,-669.523 146.762,-675.524 142.76,-681.523"/>
<text text-anchor="middle" x="155" y="-692.5" font-family="Helvetica,sans-Serif" font-size="10.00"> #obj</text>
</g>
</g>
</svg>
