<?xml version="1.0" encoding="UTF-8" standalone="no"?>
<!DOCTYPE svg PUBLIC "-//W3C//DTD SVG 1.1//EN"
 "http://www.w3.org/Graphics/SVG/1.1/DTD/svg11.dtd">
<!-- Generated by graphviz version 2.26.3 (20100126.1600)
 -->
<!-- Title: Registrator&lt; type_name, creator &gt; Pages: 1 -->
<svg width="158pt" height="302pt"
 viewBox="0.00 0.00 158.00 302.00" xmlns="http://www.w3.org/2000/svg" xmlns:xlink="http://www.w3.org/1999/xlink">
<g id="graph1" class="graph" transform="scale(1 1) rotate(0) translate(4 298)">
<title>Registrator&lt; type_name, creator &gt;</title>
<polygon fill="white" stroke="white" points="-4,5 -4,-298 155,-298 155,5 -4,5"/>
<!-- Node1 -->
<g id="node1" class="node"><title>Node1</title>
<polygon fill="#bfbfbf" stroke="black" points="-0.5,-178.5 -0.5,-293.5 124.5,-293.5 124.5,-178.5 -0.5,-178.5"/>
<text text-anchor="start" x="7.5" y="-280.5" font-family="Helvetica,sans-Serif" font-size="10.00">Registrator&lt; type_name,</text>
<text text-anchor="middle" x="62" y="-267.5" font-family="Helvetica,sans-Serif" font-size="10.00"> creator &gt;</text>
<polyline fill="none" stroke="black" points="-0.5,-259.5 124.5,-259.5 "/>
<text text-anchor="start" x="7.5" y="-246.5" font-family="Helvetica,sans-Serif" font-size="10.00">&#45; reg</text>
<polyline fill="none" stroke="black" points="-0.5,-238.5 124.5,-238.5 "/>
<text text-anchor="start" x="7.5" y="-225.5" font-family="Helvetica,sans-Serif" font-size="10.00">+ Registrator()</text>
<text text-anchor="start" x="7.5" y="-212.5" font-family="Helvetica,sans-Serif" font-size="10.00">+ Registrator()</text>
<text text-anchor="start" x="7.5" y="-199.5" font-family="Helvetica,sans-Serif" font-size="10.00">+ ~Registrator()</text>
<text text-anchor="start" x="7.5" y="-186.5" font-family="Helvetica,sans-Serif" font-size="10.00">+ registeredCount()</text>
</g>
<!-- Node2 -->
<g id="node3" class="node"><title>Node2</title>
<a xlink:href="$class_registrator.html" xlink:title="{Registrator\&lt; static\l_typename, instance \&gt;\n|&#45; reg\l|+ Registrator()\l+ Registrator()\l+ ~Registrator()\l+ registeredCount()\l}">
<polygon fill="white" stroke="black" points="4,-0.5 4,-115.5 120,-115.5 120,-0.5 4,-0.5"/>
<text text-anchor="start" x="12" y="-102.5" font-family="Helvetica,sans-Serif" font-size="10.00">Registrator&lt; static</text>
<text text-anchor="middle" x="62" y="-89.5" font-family="Helvetica,sans-Serif" font-size="10.00">_typename, instance &gt;</text>
<polyline fill="none" stroke="black" points="4,-81.5 120,-81.5 "/>
<text text-anchor="start" x="12" y="-68.5" font-family="Helvetica,sans-Serif" font-size="10.00">&#45; reg</text>
<polyline fill="none" stroke="black" points="4,-60.5 120,-60.5 "/>
<text text-anchor="start" x="12" y="-47.5" font-family="Helvetica,sans-Serif" font-size="10.00">+ Registrator()</text>
<text text-anchor="start" x="12" y="-34.5" font-family="Helvetica,sans-Serif" font-size="10.00">+ Registrator()</text>
<text text-anchor="start" x="12" y="-21.5" font-family="Helvetica,sans-Serif" font-size="10.00">+ ~Registrator()</text>
<text text-anchor="start" x="12" y="-8.5" font-family="Helvetica,sans-Serif" font-size="10.00">+ registeredCount()</text>
</a>
</g>
<!-- Node1&#45;&gt;Node2 -->
<g id="edge2" class="edge"><title>Node1&#45;&gt;Node2</title>
<path fill="none" stroke="orange" d="M62,-168.141C62,-150.782 62,-132.284 62,-115.502"/>
<polygon fill="orange" stroke="orange" points="58.5001,-168.208 62,-178.209 65.5001,-168.209 58.5001,-168.208"/>
<text text-anchor="start" x="62" y="-151" font-family="Helvetica,sans-Serif" font-size="10.00"> &lt; static_typename,</text>
<text text-anchor="middle" x="106" y="-138" font-family="Helvetica,sans-Serif" font-size="10.00"> instance &gt;</text>
</g>
</g>
</svg>
