<?xml version="1.0" encoding="UTF-8" standalone="no"?>
<!DOCTYPE svg PUBLIC "-//W3C//DTD SVG 1.1//EN"
 "http://www.w3.org/Graphics/SVG/1.1/DTD/svg11.dtd">
<!-- Generated by graphviz version 2.26.3 (20100126.1600)
 -->
<!-- Title: Level Pages: 1 -->
<svg width="182pt" height="1154pt"
 viewBox="0.00 0.00 182.00 1154.00" xmlns="http://www.w3.org/2000/svg" xmlns:xlink="http://www.w3.org/1999/xlink">
<g id="graph1" class="graph" transform="scale(1 1) rotate(0) translate(4 1150)">
<title>Level</title>
<polygon fill="white" stroke="white" points="-4,5 -4,-1150 179,-1150 179,5 -4,5"/>
<!-- Node1 -->
<g id="node1" class="node"><title>Node1</title>
<polygon fill="#bfbfbf" stroke="black" points="63.5,-939 63.5,-1145 152.5,-1145 152.5,-939 63.5,-939"/>
<text text-anchor="middle" x="108" y="-1132" font-family="Helvetica,sans-Serif" font-size="10.00">Level</text>
<polyline fill="none" stroke="black" points="63.5,-1124 152.5,-1124 "/>
<text text-anchor="start" x="71.5" y="-1111" font-family="Helvetica,sans-Serif" font-size="10.00"># rows</text>
<text text-anchor="start" x="71.5" y="-1098" font-family="Helvetica,sans-Serif" font-size="10.00"># cols</text>
<polyline fill="none" stroke="black" points="63.5,-1090 152.5,-1090 "/>
<text text-anchor="start" x="71.5" y="-1077" font-family="Helvetica,sans-Serif" font-size="10.00">+ Level()</text>
<text text-anchor="start" x="71.5" y="-1064" font-family="Helvetica,sans-Serif" font-size="10.00">+ ~Level()</text>
<text text-anchor="start" x="71.5" y="-1051" font-family="Helvetica,sans-Serif" font-size="10.00">+ detachObject()</text>
<text text-anchor="start" x="71.5" y="-1038" font-family="Helvetica,sans-Serif" font-size="10.00">+ detachObject()</text>
<text text-anchor="start" x="71.5" y="-1025" font-family="Helvetica,sans-Serif" font-size="10.00">+ attachObject()</text>
<text text-anchor="start" x="71.5" y="-1012" font-family="Helvetica,sans-Serif" font-size="10.00">+ addObject()</text>
<text text-anchor="start" x="71.5" y="-999" font-family="Helvetica,sans-Serif" font-size="10.00">+ getObject()</text>
<text text-anchor="start" x="71.5" y="-986" font-family="Helvetica,sans-Serif" font-size="10.00">+ deleteObject()</text>
<text text-anchor="start" x="71.5" y="-973" font-family="Helvetica,sans-Serif" font-size="10.00">+ deleteObject()</text>
<text text-anchor="start" x="71.5" y="-960" font-family="Helvetica,sans-Serif" font-size="10.00">+ clear()</text>
<text text-anchor="start" x="71.5" y="-947" font-family="Helvetica,sans-Serif" font-size="10.00">and 15 more...</text>
</g>
<!-- Node5 -->
<g id="node8" class="node"><title>Node5</title>
<a xlink:href="$class_level_object.html" xlink:title="Класс &quot;Объект игрового уровня&quot;.">
<polygon fill="white" stroke="black" points="-0.5,-720.5 -0.5,-887.5 114.5,-887.5 114.5,-720.5 -0.5,-720.5"/>
<text text-anchor="middle" x="57" y="-874.5" font-family="Helvetica,sans-Serif" font-size="10.00">LevelObject</text>
<polyline fill="none" stroke="black" points="-0.5,-866.5 114.5,-866.5 "/>
<text text-anchor="middle" x="57" y="-853.5" font-family="Helvetica,sans-Serif" font-size="10.00"> </text>
<polyline fill="none" stroke="black" points="-0.5,-845.5 114.5,-845.5 "/>
<text text-anchor="start" x="7.5" y="-832.5" font-family="Helvetica,sans-Serif" font-size="10.00">+ type_name()</text>
<text text-anchor="start" x="7.5" y="-819.5" font-family="Helvetica,sans-Serif" font-size="10.00">+ setLevel()</text>
<text text-anchor="start" x="7.5" y="-806.5" font-family="Helvetica,sans-Serif" font-size="10.00">+ setField()</text>
<text text-anchor="start" x="7.5" y="-793.5" font-family="Helvetica,sans-Serif" font-size="10.00">+ ~LevelObject()</text>
<text text-anchor="start" x="7.5" y="-780.5" font-family="Helvetica,sans-Serif" font-size="10.00">+ printTo()</text>
<text text-anchor="start" x="7.5" y="-767.5" font-family="Helvetica,sans-Serif" font-size="10.00">+ field()</text>
<text text-anchor="start" x="7.5" y="-754.5" font-family="Helvetica,sans-Serif" font-size="10.00">+ level()</text>
<text text-anchor="start" x="7.5" y="-741.5" font-family="Helvetica,sans-Serif" font-size="10.00"># overridedPrintTo()</text>
<text text-anchor="start" x="7.5" y="-728.5" font-family="Helvetica,sans-Serif" font-size="10.00"># overridedInputFrom()</text>
</a>
</g>
<!-- Node1&#45;&gt;Node5 -->
<g id="edge12" class="edge"><title>Node1&#45;&gt;Node5</title>
<path fill="none" stroke="#404040" d="M85.9273,-938.994C83.1242,-925.913 80.2648,-912.569 77.488,-899.61"/>
<polygon fill="none" stroke="#404040" points="77.4794,-899.57 72.311,-894.542 74.965,-887.837 80.1334,-892.865 77.4794,-899.57"/>
<text text-anchor="middle" x="97" y="-910.5" font-family="Helvetica,sans-Serif" font-size="10.00"> #level_</text>
</g>
<!-- Node2 -->
<g id="node2" class="node"><title>Node2</title>
<a xlink:href="$class_board.html" xlink:title="Класс &quot;Игровая доска&quot;(набор игровых полей).">
<polygon fill="white" stroke="black" points="82.5,-0.5 82.5,-89.5 153.5,-89.5 153.5,-0.5 82.5,-0.5"/>
<text text-anchor="middle" x="118" y="-76.5" font-family="Helvetica,sans-Serif" font-size="10.00">Board</text>
<polyline fill="none" stroke="black" points="82.5,-68.5 153.5,-68.5 "/>
<text text-anchor="middle" x="118" y="-55.5" font-family="Helvetica,sans-Serif" font-size="10.00"> </text>
<polyline fill="none" stroke="black" points="82.5,-47.5 153.5,-47.5 "/>
<text text-anchor="start" x="90.5" y="-34.5" font-family="Helvetica,sans-Serif" font-size="10.00">+ setRows()</text>
<text text-anchor="start" x="90.5" y="-21.5" font-family="Helvetica,sans-Serif" font-size="10.00">+ setCols()</text>
<text text-anchor="start" x="90.5" y="-8.5" font-family="Helvetica,sans-Serif" font-size="10.00">+ setSize()</text>
</a>
</g>
<!-- Node2&#45;&gt;Node1 -->
<g id="edge2" class="edge"><title>Node2&#45;&gt;Node1</title>
<path fill="none" stroke="#404040" d="M127.279,-89.5334C134.033,-125.827 142,-178.498 142,-225 142,-804 142,-804 142,-804 142,-844.285 137.167,-888.023 131.146,-926.884"/>
<polygon fill="none" stroke="#404040" points="131.139,-926.93 134.141,-933.486 129.243,-938.779 126.241,-932.222 131.139,-926.93"/>
<text text-anchor="middle" x="158" y="-518.5" font-family="Helvetica,sans-Serif" font-size="10.00"> #fields</text>
</g>
<!-- Node3 -->
<g id="node4" class="node"><title>Node3</title>
<a xlink:href="$class_table.html" xlink:title="{Table\&lt; Field \&gt;\n|# rows_\l# cols_\l|+ Table()\l+ Table()\l+ rows()\l+ cols()\l+ setRows()\l+ setCols()\l+ setSize()\l+ at()\l+ operator()()\l+ clear()\l}">
<polygon fill="white" stroke="black" points="31,-128.5 31,-321.5 111,-321.5 111,-128.5 31,-128.5"/>
<text text-anchor="middle" x="71" y="-308.5" font-family="Helvetica,sans-Serif" font-size="10.00">Table&lt; Field &gt;</text>
<polyline fill="none" stroke="black" points="31,-300.5 111,-300.5 "/>
<text text-anchor="start" x="39" y="-287.5" font-family="Helvetica,sans-Serif" font-size="10.00"># rows_</text>
<text text-anchor="start" x="39" y="-274.5" font-family="Helvetica,sans-Serif" font-size="10.00"># cols_</text>
<polyline fill="none" stroke="black" points="31,-266.5 111,-266.5 "/>
<text text-anchor="start" x="39" y="-253.5" font-family="Helvetica,sans-Serif" font-size="10.00">+ Table()</text>
<text text-anchor="start" x="39" y="-240.5" font-family="Helvetica,sans-Serif" font-size="10.00">+ Table()</text>
<text text-anchor="start" x="39" y="-227.5" font-family="Helvetica,sans-Serif" font-size="10.00">+ rows()</text>
<text text-anchor="start" x="39" y="-214.5" font-family="Helvetica,sans-Serif" font-size="10.00">+ cols()</text>
<text text-anchor="start" x="39" y="-201.5" font-family="Helvetica,sans-Serif" font-size="10.00">+ setRows()</text>
<text text-anchor="start" x="39" y="-188.5" font-family="Helvetica,sans-Serif" font-size="10.00">+ setCols()</text>
<text text-anchor="start" x="39" y="-175.5" font-family="Helvetica,sans-Serif" font-size="10.00">+ setSize()</text>
<text text-anchor="start" x="39" y="-162.5" font-family="Helvetica,sans-Serif" font-size="10.00">+ at()</text>
<text text-anchor="start" x="39" y="-149.5" font-family="Helvetica,sans-Serif" font-size="10.00">+ operator()()</text>
<text text-anchor="start" x="39" y="-136.5" font-family="Helvetica,sans-Serif" font-size="10.00">+ clear()</text>
</a>
</g>
<!-- Node3&#45;&gt;Node2 -->
<g id="edge4" class="edge"><title>Node3&#45;&gt;Node2</title>
<path fill="none" stroke="midnightblue" d="M98.7693,-118.649C101.409,-108.538 103.975,-98.7123 106.327,-89.7049"/>
<polygon fill="none" stroke="midnightblue" points="95.3598,-117.854 96.2198,-128.413 102.133,-119.622 95.3598,-117.854"/>
</g>
<!-- Node4 -->
<g id="node6" class="node"><title>Node4</title>
<a xlink:href="$class_field.html" xlink:title="Класс &quot;Игровое поле&quot;(клетка игровой доски).">
<polygon fill="white" stroke="black" points="15.5,-372.5 15.5,-669.5 106.5,-669.5 106.5,-372.5 15.5,-372.5"/>
<text text-anchor="middle" x="61" y="-656.5" font-family="Helvetica,sans-Serif" font-size="10.00">Field</text>
<polyline fill="none" stroke="black" points="15.5,-648.5 106.5,-648.5 "/>
<text text-anchor="start" x="23.5" y="-635.5" font-family="Helvetica,sans-Serif" font-size="10.00"># marked_</text>
<text text-anchor="start" x="23.5" y="-622.5" font-family="Helvetica,sans-Serif" font-size="10.00"># row_</text>
<text text-anchor="start" x="23.5" y="-609.5" font-family="Helvetica,sans-Serif" font-size="10.00"># col_</text>
<polyline fill="none" stroke="black" points="15.5,-601.5 106.5,-601.5 "/>
<text text-anchor="start" x="23.5" y="-588.5" font-family="Helvetica,sans-Serif" font-size="10.00">+ Field()</text>
<text text-anchor="start" x="23.5" y="-575.5" font-family="Helvetica,sans-Serif" font-size="10.00">+ Field()</text>
<text text-anchor="start" x="23.5" y="-562.5" font-family="Helvetica,sans-Serif" font-size="10.00">+ operator=()</text>
<text text-anchor="start" x="23.5" y="-549.5" font-family="Helvetica,sans-Serif" font-size="10.00">+ ~Field()</text>
<text text-anchor="start" x="23.5" y="-536.5" font-family="Helvetica,sans-Serif" font-size="10.00">+ object()</text>
<text text-anchor="start" x="23.5" y="-523.5" font-family="Helvetica,sans-Serif" font-size="10.00">+ marked()</text>
<text text-anchor="start" x="23.5" y="-510.5" font-family="Helvetica,sans-Serif" font-size="10.00">+ row()</text>
<text text-anchor="start" x="23.5" y="-497.5" font-family="Helvetica,sans-Serif" font-size="10.00">+ col()</text>
<text text-anchor="start" x="23.5" y="-484.5" font-family="Helvetica,sans-Serif" font-size="10.00"># setRow()</text>
<text text-anchor="start" x="23.5" y="-471.5" font-family="Helvetica,sans-Serif" font-size="10.00"># setCol()</text>
<text text-anchor="start" x="23.5" y="-458.5" font-family="Helvetica,sans-Serif" font-size="10.00"># setMarked()</text>
<text text-anchor="start" x="23.5" y="-445.5" font-family="Helvetica,sans-Serif" font-size="10.00"># deleteObject()</text>
<text text-anchor="start" x="23.5" y="-432.5" font-family="Helvetica,sans-Serif" font-size="10.00"># detachObject()</text>
<text text-anchor="start" x="23.5" y="-419.5" font-family="Helvetica,sans-Serif" font-size="10.00"># replaceObject()</text>
<text text-anchor="start" x="23.5" y="-406.5" font-family="Helvetica,sans-Serif" font-size="10.00"># replaceObject()</text>
<text text-anchor="start" x="23.5" y="-393.5" font-family="Helvetica,sans-Serif" font-size="10.00"># attachObject()</text>
<text text-anchor="start" x="23.5" y="-380.5" font-family="Helvetica,sans-Serif" font-size="10.00"># addObject()</text>
</a>
</g>
<!-- Node4&#45;&gt;Node3 -->
<g id="edge6" class="edge"><title>Node4&#45;&gt;Node3</title>
<path fill="none" stroke="#404040" d="M66.0293,-372.133C66.4634,-359.284 66.8972,-346.444 67.3176,-334"/>
<polygon fill="none" stroke="#404040" points="67.3278,-333.695 63.5327,-327.564 67.733,-321.702 71.5281,-327.834 67.3278,-333.695"/>
<text text-anchor="middle" x="80" y="-344.5" font-family="Helvetica,sans-Serif" font-size="10.00"> #data</text>
</g>
<!-- Node4&#45;&gt;Node5 -->
<g id="edge10" class="edge"><title>Node4&#45;&gt;Node5</title>
<path fill="none" stroke="#404040" d="M58.9005,-669.54C58.7161,-682.585 58.5329,-695.551 58.357,-707.991"/>
<polygon fill="none" stroke="#404040" points="58.3536,-708.241 62.2683,-714.296 58.1839,-720.239 54.2691,-714.183 58.3536,-708.241"/>
<text text-anchor="middle" x="75" y="-692.5" font-family="Helvetica,sans-Serif" font-size="10.00"> #field_</text>
</g>
<!-- Node5&#45;&gt;Node4 -->
<g id="edge8" class="edge"><title>Node5&#45;&gt;Node4</title>
<path fill="none" stroke="#404040" d="M36.6036,-720.48C35.5637,-714.253 34.673,-708.044 34,-702 33.2547,-695.306 32.8179,-688.48 32.6437,-681.588"/>
<polygon fill="none" stroke="#404040" points="32.6437,-681.541 28.6203,-675.556 32.5968,-669.541 36.6202,-675.525 32.6437,-681.541"/>
<text text-anchor="middle" x="45" y="-692.5" font-family="Helvetica,sans-Serif" font-size="10.00"> #obj</text>
</g>
</g>
</svg>
