<?xml version="1.0" encoding="UTF-8" standalone="no"?>
<!DOCTYPE svg PUBLIC "-//W3C//DTD SVG 1.1//EN"
 "http://www.w3.org/Graphics/SVG/1.1/DTD/svg11.dtd">
<!-- Generated by graphviz version 2.26.3 (20100126.1600)
 -->
<!-- Title: std::vector&lt; T &gt; Pages: 1 -->
<svg width="229pt" height="200pt"
 viewBox="0.00 0.00 229.00 200.00" xmlns="http://www.w3.org/2000/svg" xmlns:xlink="http://www.w3.org/1999/xlink">
<g id="graph1" class="graph" transform="scale(1 1) rotate(0) translate(4 196)">
<title>std::vector&lt; T &gt;</title>
<polygon fill="white" stroke="white" points="-4,5 -4,-196 226,-196 226,5 -4,5"/>
<!-- Node1 -->
<g id="node1" class="node"><title>Node1</title>
<polygon fill="#bfbfbf" stroke="black" points="63.5,-128.5 63.5,-191.5 150.5,-191.5 150.5,-128.5 63.5,-128.5"/>
<text text-anchor="middle" x="107" y="-178.5" font-family="Helvetica,sans-Serif" font-size="10.00">std::vector&lt; T &gt;</text>
<polyline fill="none" stroke="black" points="63.5,-170.5 150.5,-170.5 "/>
<text text-anchor="start" x="71.5" y="-157.5" font-family="Helvetica,sans-Serif" font-size="10.00">+ element</text>
<polyline fill="none" stroke="black" points="63.5,-149.5 150.5,-149.5 "/>
<text text-anchor="middle" x="107" y="-136.5" font-family="Helvetica,sans-Serif" font-size="10.00"> </text>
</g>
<!-- Node2 -->
<g id="node3" class="node"><title>Node2</title>
<a xlink:href="$classstd_1_1vector.html" xlink:title="{std::vector\&lt; vector\l\&lt; Field \&gt; \&gt;\n|+ element\l|}">
<polygon fill="white" stroke="black" points="-0.5,-1 -0.5,-77 98.5,-77 98.5,-1 -0.5,-1"/>
<text text-anchor="start" x="7.5" y="-64" font-family="Helvetica,sans-Serif" font-size="10.00">std::vector&lt; vector</text>
<text text-anchor="middle" x="49" y="-51" font-family="Helvetica,sans-Serif" font-size="10.00">&lt; Field &gt; &gt;</text>
<polyline fill="none" stroke="black" points="-0.5,-43 98.5,-43 "/>
<text text-anchor="start" x="7.5" y="-30" font-family="Helvetica,sans-Serif" font-size="10.00">+ element</text>
<polyline fill="none" stroke="black" points="-0.5,-22 98.5,-22 "/>
<text text-anchor="middle" x="49" y="-9" font-family="Helvetica,sans-Serif" font-size="10.00"> </text>
</a>
</g>
<!-- Node1&#45;&gt;Node2 -->
<g id="edge2" class="edge"><title>Node1&#45;&gt;Node2</title>
<path fill="none" stroke="orange" d="M61.1317,-120.37C58.7923,-117.051 56.7088,-113.586 55,-110 50.2111,-99.9493 48.0478,-88.1902 47.2558,-77.1661"/>
<polygon fill="orange" stroke="orange" points="58.4577,-122.632 67.4055,-128.305 63.9487,-118.29 58.4577,-122.632"/>
<text text-anchor="middle" x="99" y="-100.5" font-family="Helvetica,sans-Serif" font-size="10.00"> &lt; vector&lt; Field &gt; &gt;</text>
</g>
<!-- Node3 -->
<g id="node5" class="node"><title>Node3</title>
<a xlink:href="$classstd_1_1vector.html" xlink:title="{std::vector\&lt; vector\l\&lt; T \&gt; \&gt;\n|+ element\l|}">
<polygon fill="white" stroke="black" points="115.5,-1 115.5,-77 214.5,-77 214.5,-1 115.5,-1"/>
<text text-anchor="start" x="123.5" y="-64" font-family="Helvetica,sans-Serif" font-size="10.00">std::vector&lt; vector</text>
<text text-anchor="middle" x="165" y="-51" font-family="Helvetica,sans-Serif" font-size="10.00">&lt; T &gt; &gt;</text>
<polyline fill="none" stroke="black" points="115.5,-43 214.5,-43 "/>
<text text-anchor="start" x="123.5" y="-30" font-family="Helvetica,sans-Serif" font-size="10.00">+ element</text>
<polyline fill="none" stroke="black" points="115.5,-22 214.5,-22 "/>
<text text-anchor="middle" x="165" y="-9" font-family="Helvetica,sans-Serif" font-size="10.00"> </text>
</a>
</g>
<!-- Node1&#45;&gt;Node3 -->
<g id="edge4" class="edge"><title>Node1&#45;&gt;Node3</title>
<path fill="none" stroke="orange" d="M137.513,-119.907C139.495,-116.63 141.353,-113.306 143,-110 148.122,-99.7203 152.342,-88.0068 155.667,-77.0989"/>
<polygon fill="orange" stroke="orange" points="134.5,-118.121 132.038,-128.426 140.389,-121.906 134.5,-118.121"/>
<text text-anchor="middle" x="184.5" y="-100.5" font-family="Helvetica,sans-Serif" font-size="10.00"> &lt; vector&lt; T &gt; &gt;</text>
</g>
</g>
</svg>
