<?xml version="1.0" encoding="UTF-8" standalone="no"?>
<!DOCTYPE svg PUBLIC "-//W3C//DTD SVG 1.1//EN"
 "http://www.w3.org/Graphics/SVG/1.1/DTD/svg11.dtd">
<!-- Generated by graphviz version 2.26.3 (20100126.1600)
 -->
<!-- Title: Field Pages: 1 -->
<svg width="186pt" height="1154pt"
 viewBox="0.00 0.00 186.00 1154.00" xmlns="http://www.w3.org/2000/svg" xmlns:xlink="http://www.w3.org/1999/xlink">
<g id="graph1" class="graph" transform="scale(1 1) rotate(0) translate(4 1150)">
<title>Field</title>
<polygon fill="white" stroke="white" points="-4,5 -4,-1150 183,-1150 183,5 -4,5"/>
<!-- Node1 -->
<g id="node1" class="node"><title>Node1</title>
<polygon fill="#bfbfbf" stroke="black" points="39.5,-848.5 39.5,-1145.5 130.5,-1145.5 130.5,-848.5 39.5,-848.5"/>
<text text-anchor="middle" x="85" y="-1132.5" font-family="Helvetica,sans-Serif" font-size="10.00">Field</text>
<polyline fill="none" stroke="black" points="39.5,-1124.5 130.5,-1124.5 "/>
<text text-anchor="start" x="47.5" y="-1111.5" font-family="Helvetica,sans-Serif" font-size="10.00"># marked_</text>
<text text-anchor="start" x="47.5" y="-1098.5" font-family="Helvetica,sans-Serif" font-size="10.00"># row_</text>
<text text-anchor="start" x="47.5" y="-1085.5" font-family="Helvetica,sans-Serif" font-size="10.00"># col_</text>
<polyline fill="none" stroke="black" points="39.5,-1077.5 130.5,-1077.5 "/>
<text text-anchor="start" x="47.5" y="-1064.5" font-family="Helvetica,sans-Serif" font-size="10.00">+ Field()</text>
<text text-anchor="start" x="47.5" y="-1051.5" font-family="Helvetica,sans-Serif" font-size="10.00">+ Field()</text>
<text text-anchor="start" x="47.5" y="-1038.5" font-family="Helvetica,sans-Serif" font-size="10.00">+ operator=()</text>
<text text-anchor="start" x="47.5" y="-1025.5" font-family="Helvetica,sans-Serif" font-size="10.00">+ ~Field()</text>
<text text-anchor="start" x="47.5" y="-1012.5" font-family="Helvetica,sans-Serif" font-size="10.00">+ object()</text>
<text text-anchor="start" x="47.5" y="-999.5" font-family="Helvetica,sans-Serif" font-size="10.00">+ marked()</text>
<text text-anchor="start" x="47.5" y="-986.5" font-family="Helvetica,sans-Serif" font-size="10.00">+ row()</text>
<text text-anchor="start" x="47.5" y="-973.5" font-family="Helvetica,sans-Serif" font-size="10.00">+ col()</text>
<text text-anchor="start" x="47.5" y="-960.5" font-family="Helvetica,sans-Serif" font-size="10.00"># setRow()</text>
<text text-anchor="start" x="47.5" y="-947.5" font-family="Helvetica,sans-Serif" font-size="10.00"># setCol()</text>
<text text-anchor="start" x="47.5" y="-934.5" font-family="Helvetica,sans-Serif" font-size="10.00"># setMarked()</text>
<text text-anchor="start" x="47.5" y="-921.5" font-family="Helvetica,sans-Serif" font-size="10.00"># deleteObject()</text>
<text text-anchor="start" x="47.5" y="-908.5" font-family="Helvetica,sans-Serif" font-size="10.00"># detachObject()</text>
<text text-anchor="start" x="47.5" y="-895.5" font-family="Helvetica,sans-Serif" font-size="10.00"># replaceObject()</text>
<text text-anchor="start" x="47.5" y="-882.5" font-family="Helvetica,sans-Serif" font-size="10.00"># replaceObject()</text>
<text text-anchor="start" x="47.5" y="-869.5" font-family="Helvetica,sans-Serif" font-size="10.00"># attachObject()</text>
<text text-anchor="start" x="47.5" y="-856.5" font-family="Helvetica,sans-Serif" font-size="10.00"># addObject()</text>
</g>
<!-- Node2 -->
<g id="node2" class="node"><title>Node2</title>
<a xlink:href="$class_level_object.html" xlink:title="Класс &quot;Объект игрового уровня&quot;.">
<polygon fill="white" stroke="black" points="26.5,-0.5 26.5,-167.5 141.5,-167.5 141.5,-0.5 26.5,-0.5"/>
<text text-anchor="middle" x="84" y="-154.5" font-family="Helvetica,sans-Serif" font-size="10.00">LevelObject</text>
<polyline fill="none" stroke="black" points="26.5,-146.5 141.5,-146.5 "/>
<text text-anchor="middle" x="84" y="-133.5" font-family="Helvetica,sans-Serif" font-size="10.00"> </text>
<polyline fill="none" stroke="black" points="26.5,-125.5 141.5,-125.5 "/>
<text text-anchor="start" x="34.5" y="-112.5" font-family="Helvetica,sans-Serif" font-size="10.00">+ type_name()</text>
<text text-anchor="start" x="34.5" y="-99.5" font-family="Helvetica,sans-Serif" font-size="10.00">+ setLevel()</text>
<text text-anchor="start" x="34.5" y="-86.5" font-family="Helvetica,sans-Serif" font-size="10.00">+ setField()</text>
<text text-anchor="start" x="34.5" y="-73.5" font-family="Helvetica,sans-Serif" font-size="10.00">+ ~LevelObject()</text>
<text text-anchor="start" x="34.5" y="-60.5" font-family="Helvetica,sans-Serif" font-size="10.00">+ printTo()</text>
<text text-anchor="start" x="34.5" y="-47.5" font-family="Helvetica,sans-Serif" font-size="10.00">+ field()</text>
<text text-anchor="start" x="34.5" y="-34.5" font-family="Helvetica,sans-Serif" font-size="10.00">+ level()</text>
<text text-anchor="start" x="34.5" y="-21.5" font-family="Helvetica,sans-Serif" font-size="10.00"># overridedPrintTo()</text>
<text text-anchor="start" x="34.5" y="-8.5" font-family="Helvetica,sans-Serif" font-size="10.00"># overridedInputFrom()</text>
</a>
</g>
<!-- Node1&#45;&gt;Node2 -->
<g id="edge4" class="edge"><title>Node1&#45;&gt;Node2</title>
<path fill="none" stroke="#404040" d="M39.3897,-891.874C19.2255,-836.223 0,-766.095 0,-701 0,-701 0,-701 0,-322 0,-273.028 16.0101,-221.454 34.0511,-178.884"/>
<polygon fill="none" stroke="#404040" points="34.1327,-178.696 32.8625,-171.598 38.9263,-167.695 40.1965,-174.794 34.1327,-178.696"/>
<text text-anchor="middle" x="16" y="-518.5" font-family="Helvetica,sans-Serif" font-size="10.00"> #field_</text>
</g>
<!-- Node5 -->
<g id="node9" class="node"><title>Node5</title>
<a xlink:href="$class_table.html" xlink:title="{Table\&lt; Field \&gt;\n|# rows_\l# cols_\l|+ Table()\l+ Table()\l+ rows()\l+ cols()\l+ setRows()\l+ setCols()\l+ setSize()\l+ at()\l+ operator()()\l+ clear()\l}">
<polygon fill="white" stroke="black" points="45,-604.5 45,-797.5 125,-797.5 125,-604.5 45,-604.5"/>
<text text-anchor="middle" x="85" y="-784.5" font-family="Helvetica,sans-Serif" font-size="10.00">Table&lt; Field &gt;</text>
<polyline fill="none" stroke="black" points="45,-776.5 125,-776.5 "/>
<text text-anchor="start" x="53" y="-763.5" font-family="Helvetica,sans-Serif" font-size="10.00"># rows_</text>
<text text-anchor="start" x="53" y="-750.5" font-family="Helvetica,sans-Serif" font-size="10.00"># cols_</text>
<polyline fill="none" stroke="black" points="45,-742.5 125,-742.5 "/>
<text text-anchor="start" x="53" y="-729.5" font-family="Helvetica,sans-Serif" font-size="10.00">+ Table()</text>
<text text-anchor="start" x="53" y="-716.5" font-family="Helvetica,sans-Serif" font-size="10.00">+ Table()</text>
<text text-anchor="start" x="53" y="-703.5" font-family="Helvetica,sans-Serif" font-size="10.00">+ rows()</text>
<text text-anchor="start" x="53" y="-690.5" font-family="Helvetica,sans-Serif" font-size="10.00">+ cols()</text>
<text text-anchor="start" x="53" y="-677.5" font-family="Helvetica,sans-Serif" font-size="10.00">+ setRows()</text>
<text text-anchor="start" x="53" y="-664.5" font-family="Helvetica,sans-Serif" font-size="10.00">+ setCols()</text>
<text text-anchor="start" x="53" y="-651.5" font-family="Helvetica,sans-Serif" font-size="10.00">+ setSize()</text>
<text text-anchor="start" x="53" y="-638.5" font-family="Helvetica,sans-Serif" font-size="10.00">+ at()</text>
<text text-anchor="start" x="53" y="-625.5" font-family="Helvetica,sans-Serif" font-size="10.00">+ operator()()</text>
<text text-anchor="start" x="53" y="-612.5" font-family="Helvetica,sans-Serif" font-size="10.00">+ clear()</text>
</a>
</g>
<!-- Node1&#45;&gt;Node5 -->
<g id="edge12" class="edge"><title>Node1&#45;&gt;Node5</title>
<path fill="none" stroke="#404040" d="M85,-848.133C85,-835.284 85,-822.444 85,-810"/>
<polygon fill="none" stroke="#404040" points="85.0001,-809.702 81,-803.702 85,-797.702 89,-803.702 85.0001,-809.702"/>
<text text-anchor="middle" x="99" y="-820.5" font-family="Helvetica,sans-Serif" font-size="10.00"> #data</text>
</g>
<!-- Node2&#45;&gt;Node1 -->
<g id="edge2" class="edge"><title>Node2&#45;&gt;Node1</title>
<path fill="none" stroke="#404040" d="M122.319,-167.522C139.514,-212.349 156,-269.118 156,-322 156,-701 156,-701 156,-701 156,-751.53 146.095,-805.607 133.685,-853.532"/>
<polygon fill="none" stroke="#404040" points="133.651,-853.658 135.975,-860.485 130.568,-865.256 128.244,-858.429 133.651,-853.658"/>
<text text-anchor="middle" x="167" y="-518.5" font-family="Helvetica,sans-Serif" font-size="10.00"> #obj</text>
</g>
<!-- Node3 -->
<g id="node5" class="node"><title>Node3</title>
<a xlink:href="$class_level.html" xlink:title="Класс &quot;Игровой уровень&quot;.">
<polygon fill="white" stroke="black" points="39.5,-219 39.5,-425 128.5,-425 128.5,-219 39.5,-219"/>
<text text-anchor="middle" x="84" y="-412" font-family="Helvetica,sans-Serif" font-size="10.00">Level</text>
<polyline fill="none" stroke="black" points="39.5,-404 128.5,-404 "/>
<text text-anchor="start" x="47.5" y="-391" font-family="Helvetica,sans-Serif" font-size="10.00"># rows</text>
<text text-anchor="start" x="47.5" y="-378" font-family="Helvetica,sans-Serif" font-size="10.00"># cols</text>
<polyline fill="none" stroke="black" points="39.5,-370 128.5,-370 "/>
<text text-anchor="start" x="47.5" y="-357" font-family="Helvetica,sans-Serif" font-size="10.00">+ Level()</text>
<text text-anchor="start" x="47.5" y="-344" font-family="Helvetica,sans-Serif" font-size="10.00">+ ~Level()</text>
<text text-anchor="start" x="47.5" y="-331" font-family="Helvetica,sans-Serif" font-size="10.00">+ detachObject()</text>
<text text-anchor="start" x="47.5" y="-318" font-family="Helvetica,sans-Serif" font-size="10.00">+ detachObject()</text>
<text text-anchor="start" x="47.5" y="-305" font-family="Helvetica,sans-Serif" font-size="10.00">+ attachObject()</text>
<text text-anchor="start" x="47.5" y="-292" font-family="Helvetica,sans-Serif" font-size="10.00">+ addObject()</text>
<text text-anchor="start" x="47.5" y="-279" font-family="Helvetica,sans-Serif" font-size="10.00">+ getObject()</text>
<text text-anchor="start" x="47.5" y="-266" font-family="Helvetica,sans-Serif" font-size="10.00">+ deleteObject()</text>
<text text-anchor="start" x="47.5" y="-253" font-family="Helvetica,sans-Serif" font-size="10.00">+ deleteObject()</text>
<text text-anchor="start" x="47.5" y="-240" font-family="Helvetica,sans-Serif" font-size="10.00">+ clear()</text>
<text text-anchor="start" x="47.5" y="-227" font-family="Helvetica,sans-Serif" font-size="10.00">and 15 more...</text>
</a>
</g>
<!-- Node3&#45;&gt;Node2 -->
<g id="edge6" class="edge"><title>Node3&#45;&gt;Node2</title>
<path fill="none" stroke="#404040" d="M84,-218.994C84,-206.046 84,-192.841 84,-180.007"/>
<polygon fill="none" stroke="#404040" points="84.0001,-179.837 80,-173.837 84,-167.837 88,-173.837 84.0001,-179.837"/>
<text text-anchor="middle" x="101" y="-190.5" font-family="Helvetica,sans-Serif" font-size="10.00"> #level_</text>
</g>
<!-- Node4 -->
<g id="node7" class="node"><title>Node4</title>
<a xlink:href="$class_board.html" xlink:title="Класс &quot;Игровая доска&quot;(набор игровых полей).">
<polygon fill="white" stroke="black" points="49.5,-476.5 49.5,-565.5 120.5,-565.5 120.5,-476.5 49.5,-476.5"/>
<text text-anchor="middle" x="85" y="-552.5" font-family="Helvetica,sans-Serif" font-size="10.00">Board</text>
<polyline fill="none" stroke="black" points="49.5,-544.5 120.5,-544.5 "/>
<text text-anchor="middle" x="85" y="-531.5" font-family="Helvetica,sans-Serif" font-size="10.00"> </text>
<polyline fill="none" stroke="black" points="49.5,-523.5 120.5,-523.5 "/>
<text text-anchor="start" x="57.5" y="-510.5" font-family="Helvetica,sans-Serif" font-size="10.00">+ setRows()</text>
<text text-anchor="start" x="57.5" y="-497.5" font-family="Helvetica,sans-Serif" font-size="10.00">+ setCols()</text>
<text text-anchor="start" x="57.5" y="-484.5" font-family="Helvetica,sans-Serif" font-size="10.00">+ setSize()</text>
</a>
</g>
<!-- Node4&#45;&gt;Node3 -->
<g id="edge8" class="edge"><title>Node4&#45;&gt;Node3</title>
<path fill="none" stroke="#404040" d="M84.7756,-476.341C84.7159,-464.464 84.6486,-451.072 84.5792,-437.263"/>
<polygon fill="none" stroke="#404040" points="84.5782,-437.05 80.5481,-431.07 84.5178,-425.05 88.548,-431.03 84.5782,-437.05"/>
<text text-anchor="middle" x="100" y="-448.5" font-family="Helvetica,sans-Serif" font-size="10.00"> #fields</text>
</g>
<!-- Node5&#45;&gt;Node4 -->
<g id="edge10" class="edge"><title>Node5&#45;&gt;Node4</title>
<path fill="none" stroke="midnightblue" d="M85,-594.337C85,-584.336 85,-574.619 85,-565.705"/>
<polygon fill="none" stroke="midnightblue" points="81.5001,-594.413 85,-604.413 88.5001,-594.413 81.5001,-594.413"/>
</g>
</g>
</svg>
