<?xml version="1.0" encoding="UTF-8" standalone="no"?>
<!DOCTYPE svg PUBLIC "-//W3C//DTD SVG 1.1//EN"
 "http://www.w3.org/Graphics/SVG/1.1/DTD/svg11.dtd">
<!-- Generated by graphviz version 2.26.3 (20100126.1600)
 -->
<!-- Title: Wall Pages: 1 -->
<svg width="122pt" height="330pt"
 viewBox="0.00 0.00 122.00 330.00" xmlns="http://www.w3.org/2000/svg" xmlns:xlink="http://www.w3.org/1999/xlink">
<g id="graph1" class="graph" transform="scale(1 1) rotate(0) translate(4 326)">
<title>Wall</title>
<polygon fill="white" stroke="white" points="-4,5 -4,-326 119,-326 119,5 -4,5"/>
<!-- Node1 -->
<g id="node1" class="node"><title>Node1</title>
<polygon fill="#bfbfbf" stroke="black" points="5,-1 5,-103 109,-103 109,-1 5,-1"/>
<text text-anchor="middle" x="57" y="-90" font-family="Helvetica,sans-Serif" font-size="10.00">Wall</text>
<polyline fill="none" stroke="black" points="5,-82 109,-82 "/>
<text text-anchor="start" x="13" y="-69" font-family="Helvetica,sans-Serif" font-size="10.00">+ creator</text>
<polyline fill="none" stroke="black" points="5,-61 109,-61 "/>
<text text-anchor="start" x="13" y="-48" font-family="Helvetica,sans-Serif" font-size="10.00">+ Wall()</text>
<text text-anchor="start" x="13" y="-35" font-family="Helvetica,sans-Serif" font-size="10.00">+ type_name()</text>
<text text-anchor="start" x="13" y="-22" font-family="Helvetica,sans-Serif" font-size="10.00">+ static_typename()</text>
<text text-anchor="start" x="13" y="-9" font-family="Helvetica,sans-Serif" font-size="10.00">+ instance()</text>
</g>
<!-- Node2 -->
<g id="node2" class="node"><title>Node2</title>
<a xlink:href="$class_level_object.html" xlink:title="Класс &quot;Объект игрового уровня&quot;.">
<polygon fill="white" stroke="black" points="-0.5,-141 -0.5,-321 114.5,-321 114.5,-141 -0.5,-141"/>
<text text-anchor="middle" x="57" y="-308" font-family="Helvetica,sans-Serif" font-size="10.00">LevelObject</text>
<polyline fill="none" stroke="black" points="-0.5,-300 114.5,-300 "/>
<text text-anchor="start" x="7.5" y="-287" font-family="Helvetica,sans-Serif" font-size="10.00"># level_</text>
<text text-anchor="start" x="7.5" y="-274" font-family="Helvetica,sans-Serif" font-size="10.00"># field_</text>
<polyline fill="none" stroke="black" points="-0.5,-266 114.5,-266 "/>
<text text-anchor="start" x="7.5" y="-253" font-family="Helvetica,sans-Serif" font-size="10.00">+ type_name()</text>
<text text-anchor="start" x="7.5" y="-240" font-family="Helvetica,sans-Serif" font-size="10.00">+ setLevel()</text>
<text text-anchor="start" x="7.5" y="-227" font-family="Helvetica,sans-Serif" font-size="10.00">+ setField()</text>
<text text-anchor="start" x="7.5" y="-214" font-family="Helvetica,sans-Serif" font-size="10.00">+ ~LevelObject()</text>
<text text-anchor="start" x="7.5" y="-201" font-family="Helvetica,sans-Serif" font-size="10.00">+ printTo()</text>
<text text-anchor="start" x="7.5" y="-188" font-family="Helvetica,sans-Serif" font-size="10.00">+ field()</text>
<text text-anchor="start" x="7.5" y="-175" font-family="Helvetica,sans-Serif" font-size="10.00">+ level()</text>
<text text-anchor="start" x="7.5" y="-162" font-family="Helvetica,sans-Serif" font-size="10.00"># overridedPrintTo()</text>
<text text-anchor="start" x="7.5" y="-149" font-family="Helvetica,sans-Serif" font-size="10.00"># overridedInputFrom()</text>
</a>
</g>
<!-- Node2&#45;&gt;Node1 -->
<g id="edge2" class="edge"><title>Node2&#45;&gt;Node1</title>
<path fill="none" stroke="midnightblue" d="M57,-130.731C57,-121.33 57,-112.089 57,-103.433"/>
<polygon fill="none" stroke="midnightblue" points="53.5001,-130.976 57,-140.976 60.5001,-130.976 53.5001,-130.976"/>
</g>
</g>
</svg>
