<?xml version="1.0" encoding="UTF-8" standalone="no"?>
<!DOCTYPE svg PUBLIC "-//W3C//DTD SVG 1.1//EN"
 "http://www.w3.org/Graphics/SVG/1.1/DTD/svg11.dtd">
<!-- Generated by graphviz version 2.26.3 (20100126.1600)
 -->
<!-- Title: SokobanLevel Pages: 1 -->
<svg width="100pt" height="446pt"
 viewBox="0.00 0.00 100.00 446.00" xmlns="http://www.w3.org/2000/svg" xmlns:xlink="http://www.w3.org/1999/xlink">
<g id="graph1" class="graph" transform="scale(1 1) rotate(0) translate(4 442)">
<title>SokobanLevel</title>
<polygon fill="white" stroke="white" points="-4,5 -4,-442 97,-442 97,5 -4,5"/>
<!-- Node1 -->
<g id="node1" class="node"><title>Node1</title>
<polygon fill="#bfbfbf" stroke="black" points="-0.5,-1 -0.5,-181 92.5,-181 92.5,-1 -0.5,-1"/>
<text text-anchor="middle" x="46" y="-168" font-family="Helvetica,sans-Serif" font-size="10.00">SokobanLevel</text>
<polyline fill="none" stroke="black" points="-0.5,-160 92.5,-160 "/>
<text text-anchor="start" x="7.5" y="-147" font-family="Helvetica,sans-Serif" font-size="10.00">&#45; box_count</text>
<text text-anchor="start" x="7.5" y="-134" font-family="Helvetica,sans-Serif" font-size="10.00">&#45; mark_count</text>
<text text-anchor="start" x="7.5" y="-121" font-family="Helvetica,sans-Serif" font-size="10.00">&#45; keeper_count</text>
<polyline fill="none" stroke="black" points="-0.5,-113 92.5,-113 "/>
<text text-anchor="start" x="7.5" y="-100" font-family="Helvetica,sans-Serif" font-size="10.00">+ SokobanLevel()</text>
<text text-anchor="start" x="7.5" y="-87" font-family="Helvetica,sans-Serif" font-size="10.00">+ attachObject()</text>
<text text-anchor="start" x="7.5" y="-74" font-family="Helvetica,sans-Serif" font-size="10.00">+ detachObject()</text>
<text text-anchor="start" x="7.5" y="-61" font-family="Helvetica,sans-Serif" font-size="10.00">+ replaceObject()</text>
<text text-anchor="start" x="7.5" y="-48" font-family="Helvetica,sans-Serif" font-size="10.00">+ setMarked()</text>
<text text-anchor="start" x="7.5" y="-35" font-family="Helvetica,sans-Serif" font-size="10.00">+ load()</text>
<text text-anchor="start" x="7.5" y="-22" font-family="Helvetica,sans-Serif" font-size="10.00">+ validate()</text>
<text text-anchor="start" x="7.5" y="-9" font-family="Helvetica,sans-Serif" font-size="10.00">+ clear()</text>
</g>
<!-- Node2 -->
<g id="node2" class="node"><title>Node2</title>
<a xlink:href="$class_level.html" xlink:title="Класс &quot;Игровой уровень&quot;.">
<polygon fill="white" stroke="black" points="1.5,-218.5 1.5,-437.5 90.5,-437.5 90.5,-218.5 1.5,-218.5"/>
<text text-anchor="middle" x="46" y="-424.5" font-family="Helvetica,sans-Serif" font-size="10.00">Level</text>
<polyline fill="none" stroke="black" points="1.5,-416.5 90.5,-416.5 "/>
<text text-anchor="start" x="9.5" y="-403.5" font-family="Helvetica,sans-Serif" font-size="10.00"># rows</text>
<text text-anchor="start" x="9.5" y="-390.5" font-family="Helvetica,sans-Serif" font-size="10.00"># cols</text>
<text text-anchor="start" x="9.5" y="-377.5" font-family="Helvetica,sans-Serif" font-size="10.00"># fields</text>
<polyline fill="none" stroke="black" points="1.5,-369.5 90.5,-369.5 "/>
<text text-anchor="start" x="9.5" y="-356.5" font-family="Helvetica,sans-Serif" font-size="10.00">+ Level()</text>
<text text-anchor="start" x="9.5" y="-343.5" font-family="Helvetica,sans-Serif" font-size="10.00">+ ~Level()</text>
<text text-anchor="start" x="9.5" y="-330.5" font-family="Helvetica,sans-Serif" font-size="10.00">+ detachObject()</text>
<text text-anchor="start" x="9.5" y="-317.5" font-family="Helvetica,sans-Serif" font-size="10.00">+ detachObject()</text>
<text text-anchor="start" x="9.5" y="-304.5" font-family="Helvetica,sans-Serif" font-size="10.00">+ attachObject()</text>
<text text-anchor="start" x="9.5" y="-291.5" font-family="Helvetica,sans-Serif" font-size="10.00">+ addObject()</text>
<text text-anchor="start" x="9.5" y="-278.5" font-family="Helvetica,sans-Serif" font-size="10.00">+ getObject()</text>
<text text-anchor="start" x="9.5" y="-265.5" font-family="Helvetica,sans-Serif" font-size="10.00">+ deleteObject()</text>
<text text-anchor="start" x="9.5" y="-252.5" font-family="Helvetica,sans-Serif" font-size="10.00">+ deleteObject()</text>
<text text-anchor="start" x="9.5" y="-239.5" font-family="Helvetica,sans-Serif" font-size="10.00">+ clear()</text>
<text text-anchor="start" x="9.5" y="-226.5" font-family="Helvetica,sans-Serif" font-size="10.00">and 15 more...</text>
</a>
</g>
<!-- Node2&#45;&gt;Node1 -->
<g id="edge2" class="edge"><title>Node2&#45;&gt;Node1</title>
<path fill="none" stroke="midnightblue" d="M46,-208.024C46,-199.029 46,-190.047 46,-181.282"/>
<polygon fill="none" stroke="midnightblue" points="42.5001,-208.172 46,-218.172 49.5001,-208.172 42.5001,-208.172"/>
</g>
</g>
</svg>
