<?xml version="1.0" encoding="UTF-8" standalone="no"?>
<!DOCTYPE svg PUBLIC "-//W3C//DTD SVG 1.1//EN"
 "http://www.w3.org/Graphics/SVG/1.1/DTD/svg11.dtd">
<!-- Generated by graphviz version 2.26.3 (20100126.1600)
 -->
<!-- Title: Keeper Pages: 1 -->
<svg width="273pt" height="1154pt"
 viewBox="0.00 0.00 273.00 1154.00" xmlns="http://www.w3.org/2000/svg" xmlns:xlink="http://www.w3.org/1999/xlink">
<g id="graph1" class="graph" transform="scale(1 1) rotate(0) translate(4 1150)">
<title>Keeper</title>
<polygon fill="white" stroke="white" points="-4,5 -4,-1150 270,-1150 270,5 -4,5"/>
<!-- Node1 -->
<g id="node1" class="node"><title>Node1</title>
<polygon fill="#bfbfbf" stroke="black" points="152,-689 152,-869 256,-869 256,-689 152,-689"/>
<text text-anchor="middle" x="204" y="-856" font-family="Helvetica,sans-Serif" font-size="10.00">Keeper</text>
<polyline fill="none" stroke="black" points="152,-848 256,-848 "/>
<text text-anchor="middle" x="204" y="-835" font-family="Helvetica,sans-Serif" font-size="10.00"> </text>
<polyline fill="none" stroke="black" points="152,-827 256,-827 "/>
<text text-anchor="start" x="160" y="-814" font-family="Helvetica,sans-Serif" font-size="10.00">+ Keeper()</text>
<text text-anchor="start" x="160" y="-801" font-family="Helvetica,sans-Serif" font-size="10.00">+ ~Keeper()</text>
<text text-anchor="start" x="160" y="-788" font-family="Helvetica,sans-Serif" font-size="10.00">+ type_name()</text>
<text text-anchor="start" x="160" y="-775" font-family="Helvetica,sans-Serif" font-size="10.00">+ moveLeft()</text>
<text text-anchor="start" x="160" y="-762" font-family="Helvetica,sans-Serif" font-size="10.00">+ moveRight()</text>
<text text-anchor="start" x="160" y="-749" font-family="Helvetica,sans-Serif" font-size="10.00">+ moveUp()</text>
<text text-anchor="start" x="160" y="-736" font-family="Helvetica,sans-Serif" font-size="10.00">+ moveDown()</text>
<text text-anchor="start" x="160" y="-723" font-family="Helvetica,sans-Serif" font-size="10.00">+ instance()</text>
<text text-anchor="start" x="160" y="-710" font-family="Helvetica,sans-Serif" font-size="10.00">+ static_typename()</text>
<text text-anchor="start" x="160" y="-697" font-family="Helvetica,sans-Serif" font-size="10.00">&#45; move()</text>
</g>
<!-- Node2 -->
<g id="node2" class="node"><title>Node2</title>
<a xlink:href="$class_level_object.html" xlink:title="Класс &quot;Объект игрового уровня&quot;.">
<polygon fill="white" stroke="black" points="16.5,-978.5 16.5,-1145.5 131.5,-1145.5 131.5,-978.5 16.5,-978.5"/>
<text text-anchor="middle" x="74" y="-1132.5" font-family="Helvetica,sans-Serif" font-size="10.00">LevelObject</text>
<polyline fill="none" stroke="black" points="16.5,-1124.5 131.5,-1124.5 "/>
<text text-anchor="middle" x="74" y="-1111.5" font-family="Helvetica,sans-Serif" font-size="10.00"> </text>
<polyline fill="none" stroke="black" points="16.5,-1103.5 131.5,-1103.5 "/>
<text text-anchor="start" x="24.5" y="-1090.5" font-family="Helvetica,sans-Serif" font-size="10.00">+ type_name()</text>
<text text-anchor="start" x="24.5" y="-1077.5" font-family="Helvetica,sans-Serif" font-size="10.00">+ setLevel()</text>
<text text-anchor="start" x="24.5" y="-1064.5" font-family="Helvetica,sans-Serif" font-size="10.00">+ setField()</text>
<text text-anchor="start" x="24.5" y="-1051.5" font-family="Helvetica,sans-Serif" font-size="10.00">+ ~LevelObject()</text>
<text text-anchor="start" x="24.5" y="-1038.5" font-family="Helvetica,sans-Serif" font-size="10.00">+ printTo()</text>
<text text-anchor="start" x="24.5" y="-1025.5" font-family="Helvetica,sans-Serif" font-size="10.00">+ field()</text>
<text text-anchor="start" x="24.5" y="-1012.5" font-family="Helvetica,sans-Serif" font-size="10.00">+ level()</text>
<text text-anchor="start" x="24.5" y="-999.5" font-family="Helvetica,sans-Serif" font-size="10.00"># overridedPrintTo()</text>
<text text-anchor="start" x="24.5" y="-986.5" font-family="Helvetica,sans-Serif" font-size="10.00"># overridedInputFrom()</text>
</a>
</g>
<!-- Node2&#45;&gt;Node1 -->
<g id="edge2" class="edge"><title>Node2&#45;&gt;Node1</title>
<path fill="none" stroke="midnightblue" d="M130.296,-969.405C131.918,-966.252 133.491,-963.111 135,-960 149.015,-931.103 162.176,-898.578 173.17,-869.152"/>
<polygon fill="none" stroke="midnightblue" points="127.169,-967.832 125.609,-978.311 133.364,-971.093 127.169,-967.832"/>
</g>
<!-- Node3 -->
<g id="node4" class="node"><title>Node3</title>
<a xlink:href="$class_field.html" xlink:title="Класс &quot;Игровое поле&quot;(клетка игровой доски).">
<polygon fill="white" stroke="black" points="-0.5,-630.5 -0.5,-927.5 90.5,-927.5 90.5,-630.5 -0.5,-630.5"/>
<text text-anchor="middle" x="45" y="-914.5" font-family="Helvetica,sans-Serif" font-size="10.00">Field</text>
<polyline fill="none" stroke="black" points="-0.5,-906.5 90.5,-906.5 "/>
<text text-anchor="start" x="7.5" y="-893.5" font-family="Helvetica,sans-Serif" font-size="10.00"># marked_</text>
<text text-anchor="start" x="7.5" y="-880.5" font-family="Helvetica,sans-Serif" font-size="10.00"># row_</text>
<text text-anchor="start" x="7.5" y="-867.5" font-family="Helvetica,sans-Serif" font-size="10.00"># col_</text>
<polyline fill="none" stroke="black" points="-0.5,-859.5 90.5,-859.5 "/>
<text text-anchor="start" x="7.5" y="-846.5" font-family="Helvetica,sans-Serif" font-size="10.00">+ Field()</text>
<text text-anchor="start" x="7.5" y="-833.5" font-family="Helvetica,sans-Serif" font-size="10.00">+ Field()</text>
<text text-anchor="start" x="7.5" y="-820.5" font-family="Helvetica,sans-Serif" font-size="10.00">+ operator=()</text>
<text text-anchor="start" x="7.5" y="-807.5" font-family="Helvetica,sans-Serif" font-size="10.00">+ ~Field()</text>
<text text-anchor="start" x="7.5" y="-794.5" font-family="Helvetica,sans-Serif" font-size="10.00">+ object()</text>
<text text-anchor="start" x="7.5" y="-781.5" font-family="Helvetica,sans-Serif" font-size="10.00">+ marked()</text>
<text text-anchor="start" x="7.5" y="-768.5" font-family="Helvetica,sans-Serif" font-size="10.00">+ row()</text>
<text text-anchor="start" x="7.5" y="-755.5" font-family="Helvetica,sans-Serif" font-size="10.00">+ col()</text>
<text text-anchor="start" x="7.5" y="-742.5" font-family="Helvetica,sans-Serif" font-size="10.00"># setRow()</text>
<text text-anchor="start" x="7.5" y="-729.5" font-family="Helvetica,sans-Serif" font-size="10.00"># setCol()</text>
<text text-anchor="start" x="7.5" y="-716.5" font-family="Helvetica,sans-Serif" font-size="10.00"># setMarked()</text>
<text text-anchor="start" x="7.5" y="-703.5" font-family="Helvetica,sans-Serif" font-size="10.00"># deleteObject()</text>
<text text-anchor="start" x="7.5" y="-690.5" font-family="Helvetica,sans-Serif" font-size="10.00"># detachObject()</text>
<text text-anchor="start" x="7.5" y="-677.5" font-family="Helvetica,sans-Serif" font-size="10.00"># replaceObject()</text>
<text text-anchor="start" x="7.5" y="-664.5" font-family="Helvetica,sans-Serif" font-size="10.00"># replaceObject()</text>
<text text-anchor="start" x="7.5" y="-651.5" font-family="Helvetica,sans-Serif" font-size="10.00"># attachObject()</text>
<text text-anchor="start" x="7.5" y="-638.5" font-family="Helvetica,sans-Serif" font-size="10.00"># addObject()</text>
</a>
</g>
<!-- Node2&#45;&gt;Node3 -->
<g id="edge6" class="edge"><title>Node2&#45;&gt;Node3</title>
<path fill="none" stroke="#404040" d="M41.061,-978.302C39.4469,-972.172 38.0598,-966.03 37,-960 35.8284,-953.335 34.9103,-946.511 34.2113,-939.603"/>
<polygon fill="none" stroke="#404040" points="34.2,-939.466 29.7182,-933.817 33.2091,-927.507 37.6909,-933.156 34.2,-939.466"/>
<text text-anchor="middle" x="48" y="-950.5" font-family="Helvetica,sans-Serif" font-size="10.00"> #obj</text>
</g>
<!-- Node3&#45;&gt;Node2 -->
<g id="edge4" class="edge"><title>Node3&#45;&gt;Node2</title>
<path fill="none" stroke="#404040" d="M60.2214,-927.54C61.5582,-940.585 62.8868,-953.551 64.1616,-965.991"/>
<polygon fill="none" stroke="#404040" points="64.1934,-966.302 68.7842,-971.863 65.4168,-978.239 60.8259,-972.678 64.1934,-966.302"/>
<text text-anchor="middle" x="79" y="-950.5" font-family="Helvetica,sans-Serif" font-size="10.00"> #field_</text>
</g>
<!-- Node6 -->
<g id="node11" class="node"><title>Node6</title>
<a xlink:href="$class_table.html" xlink:title="{Table\&lt; Field \&gt;\n|# rows_\l# cols_\l|+ Table()\l+ Table()\l+ rows()\l+ cols()\l+ setRows()\l+ setCols()\l+ setSize()\l+ at()\l+ operator()()\l+ clear()\l}">
<polygon fill="white" stroke="black" points="5,-386.5 5,-579.5 85,-579.5 85,-386.5 5,-386.5"/>
<text text-anchor="middle" x="45" y="-566.5" font-family="Helvetica,sans-Serif" font-size="10.00">Table&lt; Field &gt;</text>
<polyline fill="none" stroke="black" points="5,-558.5 85,-558.5 "/>
<text text-anchor="start" x="13" y="-545.5" font-family="Helvetica,sans-Serif" font-size="10.00"># rows_</text>
<text text-anchor="start" x="13" y="-532.5" font-family="Helvetica,sans-Serif" font-size="10.00"># cols_</text>
<polyline fill="none" stroke="black" points="5,-524.5 85,-524.5 "/>
<text text-anchor="start" x="13" y="-511.5" font-family="Helvetica,sans-Serif" font-size="10.00">+ Table()</text>
<text text-anchor="start" x="13" y="-498.5" font-family="Helvetica,sans-Serif" font-size="10.00">+ Table()</text>
<text text-anchor="start" x="13" y="-485.5" font-family="Helvetica,sans-Serif" font-size="10.00">+ rows()</text>
<text text-anchor="start" x="13" y="-472.5" font-family="Helvetica,sans-Serif" font-size="10.00">+ cols()</text>
<text text-anchor="start" x="13" y="-459.5" font-family="Helvetica,sans-Serif" font-size="10.00">+ setRows()</text>
<text text-anchor="start" x="13" y="-446.5" font-family="Helvetica,sans-Serif" font-size="10.00">+ setCols()</text>
<text text-anchor="start" x="13" y="-433.5" font-family="Helvetica,sans-Serif" font-size="10.00">+ setSize()</text>
<text text-anchor="start" x="13" y="-420.5" font-family="Helvetica,sans-Serif" font-size="10.00">+ at()</text>
<text text-anchor="start" x="13" y="-407.5" font-family="Helvetica,sans-Serif" font-size="10.00">+ operator()()</text>
<text text-anchor="start" x="13" y="-394.5" font-family="Helvetica,sans-Serif" font-size="10.00">+ clear()</text>
</a>
</g>
<!-- Node3&#45;&gt;Node6 -->
<g id="edge14" class="edge"><title>Node3&#45;&gt;Node6</title>
<path fill="none" stroke="#404040" d="M45,-630.133C45,-617.284 45,-604.444 45,-592"/>
<polygon fill="none" stroke="#404040" points="45.0001,-591.702 41,-585.702 45,-579.702 49,-585.702 45.0001,-591.702"/>
<text text-anchor="middle" x="59" y="-602.5" font-family="Helvetica,sans-Serif" font-size="10.00"> #data</text>
</g>
<!-- Node4 -->
<g id="node7" class="node"><title>Node4</title>
<a xlink:href="$class_level.html" xlink:title="Класс &quot;Игровой уровень&quot;.">
<polygon fill="white" stroke="black" points="48.5,-1 48.5,-207 137.5,-207 137.5,-1 48.5,-1"/>
<text text-anchor="middle" x="93" y="-194" font-family="Helvetica,sans-Serif" font-size="10.00">Level</text>
<polyline fill="none" stroke="black" points="48.5,-186 137.5,-186 "/>
<text text-anchor="start" x="56.5" y="-173" font-family="Helvetica,sans-Serif" font-size="10.00"># rows</text>
<text text-anchor="start" x="56.5" y="-160" font-family="Helvetica,sans-Serif" font-size="10.00"># cols</text>
<polyline fill="none" stroke="black" points="48.5,-152 137.5,-152 "/>
<text text-anchor="start" x="56.5" y="-139" font-family="Helvetica,sans-Serif" font-size="10.00">+ Level()</text>
<text text-anchor="start" x="56.5" y="-126" font-family="Helvetica,sans-Serif" font-size="10.00">+ ~Level()</text>
<text text-anchor="start" x="56.5" y="-113" font-family="Helvetica,sans-Serif" font-size="10.00">+ detachObject()</text>
<text text-anchor="start" x="56.5" y="-100" font-family="Helvetica,sans-Serif" font-size="10.00">+ detachObject()</text>
<text text-anchor="start" x="56.5" y="-87" font-family="Helvetica,sans-Serif" font-size="10.00">+ attachObject()</text>
<text text-anchor="start" x="56.5" y="-74" font-family="Helvetica,sans-Serif" font-size="10.00">+ addObject()</text>
<text text-anchor="start" x="56.5" y="-61" font-family="Helvetica,sans-Serif" font-size="10.00">+ getObject()</text>
<text text-anchor="start" x="56.5" y="-48" font-family="Helvetica,sans-Serif" font-size="10.00">+ deleteObject()</text>
<text text-anchor="start" x="56.5" y="-35" font-family="Helvetica,sans-Serif" font-size="10.00">+ deleteObject()</text>
<text text-anchor="start" x="56.5" y="-22" font-family="Helvetica,sans-Serif" font-size="10.00">+ clear()</text>
<text text-anchor="start" x="56.5" y="-9" font-family="Helvetica,sans-Serif" font-size="10.00">and 15 more...</text>
</a>
</g>
<!-- Node4&#45;&gt;Node2 -->
<g id="edge8" class="edge"><title>Node4&#45;&gt;Node2</title>
<path fill="none" stroke="#404040" d="M113.089,-207.155C117.559,-237.871 121,-271.687 121,-303 121,-779 121,-779 121,-779 121,-842.104 109.487,-912.067 97.8571,-966.642"/>
<polygon fill="none" stroke="#404040" points="97.8507,-966.672 100.484,-973.385 95.2997,-978.398 92.6666,-971.684 97.8507,-966.672"/>
<text text-anchor="middle" x="138" y="-480.5" font-family="Helvetica,sans-Serif" font-size="10.00"> #level_</text>
</g>
<!-- Node5 -->
<g id="node9" class="node"><title>Node5</title>
<a xlink:href="$class_board.html" xlink:title="Класс &quot;Игровая доска&quot;(набор игровых полей).">
<polygon fill="white" stroke="black" points="19.5,-258.5 19.5,-347.5 90.5,-347.5 90.5,-258.5 19.5,-258.5"/>
<text text-anchor="middle" x="55" y="-334.5" font-family="Helvetica,sans-Serif" font-size="10.00">Board</text>
<polyline fill="none" stroke="black" points="19.5,-326.5 90.5,-326.5 "/>
<text text-anchor="middle" x="55" y="-313.5" font-family="Helvetica,sans-Serif" font-size="10.00"> </text>
<polyline fill="none" stroke="black" points="19.5,-305.5 90.5,-305.5 "/>
<text text-anchor="start" x="27.5" y="-292.5" font-family="Helvetica,sans-Serif" font-size="10.00">+ setRows()</text>
<text text-anchor="start" x="27.5" y="-279.5" font-family="Helvetica,sans-Serif" font-size="10.00">+ setCols()</text>
<text text-anchor="start" x="27.5" y="-266.5" font-family="Helvetica,sans-Serif" font-size="10.00">+ setSize()</text>
</a>
</g>
<!-- Node5&#45;&gt;Node4 -->
<g id="edge10" class="edge"><title>Node5&#45;&gt;Node4</title>
<path fill="none" stroke="#404040" d="M63.5279,-258.341C65.8187,-246.344 68.4049,-232.801 71.0698,-218.845"/>
<polygon fill="none" stroke="#404040" points="71.0713,-218.837 68.2677,-212.193 73.3222,-207.05 76.1257,-213.694 71.0713,-218.837"/>
<text text-anchor="middle" x="86" y="-230.5" font-family="Helvetica,sans-Serif" font-size="10.00"> #fields</text>
</g>
<!-- Node6&#45;&gt;Node5 -->
<g id="edge12" class="edge"><title>Node6&#45;&gt;Node5</title>
<path fill="none" stroke="midnightblue" d="M50.9257,-376.337C51.4813,-366.336 52.0211,-356.619 52.5164,-347.705"/>
<polygon fill="none" stroke="midnightblue" points="47.4261,-376.235 50.3659,-386.413 54.4153,-376.623 47.4261,-376.235"/>
</g>
<!-- Node7 -->
<g id="node14" class="node"><title>Node7</title>
<a xlink:href="$class_registrator.html" xlink:title="{Registrator\&lt; static\l_typename, instance \&gt;\n|&#45; reg\l|+ Registrator()\l+ Registrator()\l+ ~Registrator()\l+ registeredCount()\l}">
<polygon fill="white" stroke="black" points="149,-1004.5 149,-1119.5 265,-1119.5 265,-1004.5 149,-1004.5"/>
<text text-anchor="start" x="157" y="-1106.5" font-family="Helvetica,sans-Serif" font-size="10.00">Registrator&lt; static</text>
<text text-anchor="middle" x="207" y="-1093.5" font-family="Helvetica,sans-Serif" font-size="10.00">_typename, instance &gt;</text>
<polyline fill="none" stroke="black" points="149,-1085.5 265,-1085.5 "/>
<text text-anchor="start" x="157" y="-1072.5" font-family="Helvetica,sans-Serif" font-size="10.00">&#45; reg</text>
<polyline fill="none" stroke="black" points="149,-1064.5 265,-1064.5 "/>
<text text-anchor="start" x="157" y="-1051.5" font-family="Helvetica,sans-Serif" font-size="10.00">+ Registrator()</text>
<text text-anchor="start" x="157" y="-1038.5" font-family="Helvetica,sans-Serif" font-size="10.00">+ Registrator()</text>
<text text-anchor="start" x="157" y="-1025.5" font-family="Helvetica,sans-Serif" font-size="10.00">+ ~Registrator()</text>
<text text-anchor="start" x="157" y="-1012.5" font-family="Helvetica,sans-Serif" font-size="10.00">+ registeredCount()</text>
</a>
</g>
<!-- Node7&#45;&gt;Node1 -->
<g id="edge16" class="edge"><title>Node7&#45;&gt;Node1</title>
<path fill="none" stroke="#404040" d="M206.389,-1004.39C206.014,-969.014 205.523,-922.69 205.084,-881.245"/>
<polygon fill="none" stroke="#404040" points="205.083,-881.129 201.019,-875.172 204.955,-869.13 209.019,-875.087 205.083,-881.129"/>
<text text-anchor="middle" x="223.5" y="-950.5" font-family="Helvetica,sans-Serif" font-size="10.00"> &#45;creator</text>
</g>
</g>
</svg>
